<svg xmlns="http://www.w3.org/2000/svg" width="484" height="484" viewBox="0 0 484 484">
  <g id="组_2" data-name="组 2" transform="translate(-1223 -1254)">
    <circle id="椭圆_1" data-name="椭圆 1" cx="242" cy="242" r="242" transform="translate(1223 1254)" fill="#fff"/>
    <g id="组_1" data-name="组 1" transform="translate(463 0)">
      <path id="路径_14" data-name="路径 14" d="M163.578,305.4l9.736-73.326L88.73,173.352l77.282,26.166,18.255-27.992L250.9,130.147,397.856,211.08l7.606,123.528-65.416,90.974-51.724,7.91L315.1,384.507v-47.16l-19.473-36.816-19.777-13.083-30.426,31.339v33.164l-23.731,22.211-30.122,3.651-13.387,7.606-21.907-7-9.128-32.86,16.43-23.124Z" transform="translate(734.146 1208.782)" fill="#fff"/>
      <path id="路径_15" data-name="路径 15" d="M309.217,175.885c-16.125-3.347-33.772-2.434-33.772-2.434s-5.781,26.775-41.684,33.773C234.066,207.224,281.226,223.349,309.217,175.885Z" transform="translate(723.597 1205.64)" fill="#94a6c3"/>
      <path id="路径_16" data-name="路径 16" d="M319.5,421.174a116.937,116.937,0,0,0,40.771-59.939c.3-.912,3.042-2.434,4.868-3.651,3.042-1.826,6.085-3.347,6.694-5.781a126.778,126.778,0,0,0,1.825-21.6c0-2.739-2.738-5.477-5.476-8.216-2.13-1.826-4.26-3.956-4.26-5.476A115.935,115.935,0,0,0,327.717,244.1l-2.13,2.13a113.314,113.314,0,0,1,35.293,70.588c.3,2.434,2.738,4.868,5.172,7.3,2.13,1.826,4.564,4.564,4.564,5.781a122.266,122.266,0,0,1-1.826,20.994c-.3,1.217-3.042,2.434-5.172,3.652-3.042,1.521-5.781,3.042-6.389,5.476A112.453,112.453,0,0,1,310.983,423c3.955-8.52,16.429-36.207,23.123-50.2l-1.217-45.03-38.641-37.424-21.907,3.042L248.305,332.33s11.258,14.3-4.564,31.035c-15.517,16.43-27.687,20.081-27.687,20.081L204.8,377.361c3.346-4.26,10.04-10.649,15.213-14.908,8.824-7.3,17.648-7.91,17.648-15.822.3-16.429-17.343-11.866-17.343-11.866l-6.389,6.086-2.738,22.515L197.8,380.1l-1.521-.3-21.907-4.868s13.387-7,15.517-14.908c2.13-7.606-4.26-32.86-4.564-34.381a33.441,33.441,0,0,1,9.128,14c4.868-13.387,11.257-26.165,13.083-27.383s26.471-14.3,26.471-14.3l-8.215,21.6,6.085-3.346,14.6-35.9s14.3-7,24.949-7c19.168-.3,47.465-23.732,34.686-65.72,3.651,1.522,66.936,33.164,77.89,95.232C392.219,350.586,365.14,395.312,319.5,421.174Z" transform="translate(727.917 1203.149)" fill="#94a6c3"/>
      <path id="路径_17" data-name="路径 17" d="M251.527,181.7c7-8.216,4.259-20.386,4.259-20.386L235.4,191.441C235.1,191.441,242.7,191.745,251.527,181.7Z" transform="translate(723.478 1206.515)" fill="#1b314f"/>
      <path id="路径_18" data-name="路径 18" d="M178.276,359.865l2.434-12.17s-10.04,17.647-10.953,20.081c-.912,2.739.608,7.607,4.564,7.3s8.823-6.085,8.823-10.345C183.144,359.257,178.276,359.865,178.276,359.865Z" transform="translate(728.271 1192.958)" fill="#1b314f"/>
      <path id="路径_19" data-name="路径 19" d="M352.12,149.283s15.213.609,31.034,2.434c-35.6-27.991-69.37-36.207-96.753-36.207-37.728,0-63.286,15.518-64.807,16.43l11.866-18.864s-47.465-4.563-64.2,45.639c-4.259-10.649-8.215-26.166-8.215-26.166s-24.645,21.6-13.083,57.505c-28.3-10.345-68.762-24.645-70.284-24.949-2.13-.3-2.738.608-2.738.608s-.609.912,1.217,2.434c3.347,2.738,67.241,49.9,81.237,59.026-3.043,10.954-3.043,16.126,0,21.3,4.259,7,4.563,10.649,3.955,15.822s-6.085,49.9-7.3,55.374-14,24.95-13.387,30.73,8.519,30.425,15.517,33.164c5.172,1.825,17.952,5.781,26.471,5.781,3.042,0,5.781-.608,7-1.826,5.172-4.564,6.694-5.476,10.345-5.476h.913c1.521,0,3.346.3,5.476.3,4.868,0,11.257-.912,15.821-5.172,6.694-6.694,18.256-15.822,21.907-20.081a28.315,28.315,0,0,0,5.781-21.6c-.913-7.3,3.042-13.692,7.606-20.081,5.781-7.607,16.429-21.3,16.429-21.3C294.919,309.931,308,333.968,308,360.742c0,47.465-41.378,85.8-92.493,85.8a98.1,98.1,0,0,1-23.124-2.738c23.428,8.216,43.2,10.954,59.33,10.954,34.382,0,52.637-12.474,52.637-12.474a158.359,158.359,0,0,1-16.734,17.647h.3c56.9-7.91,84.584-54.767,84.584-54.767s-2.13,15.214-4.868,25.558c75.76-56.9,62.981-128.093,62.677-130.527.608.913,8.215,10.04,12.17,14.909C454.655,189.75,352.12,149.283,352.12,149.283Zm-116.531,200.2c-1.217,1.521-6.39,6.085-10.04,9.431s-7.606,6.694-10.65,9.736q-1.825,1.826-7.3,1.826h-9.128c4.564-6.085,17.952-20.081,22.516-23.123,5.476-3.652,8.215-7.3,4.868-13.692s-12.17-4.868-12.17-4.868a30.354,30.354,0,0,1,9.736-2.13c-5.781-1.521-13.084,0-16.43,3.347-3.651,3.346-3.042,15.213-4.564,22.819-1.521,7.91-6.694,11.866-14.6,19.168-4.26,3.955-7.3,5.172-9.736,5.172a104.784,104.784,0,0,1-15.517-3.956c-3.043-3.955-7.606-17.038-8.824-22.515.912-3.042,4.564-9.432,6.39-13.083,3.651-7,5.781-10.954,6.389-14.6,1.217-5.172,5.173-37.12,6.694-50.507,3.956,5.172,9.432,13.692,8.216,19.168,8.823-12.474,2.434-24.645-.609-29.513-2.738-4.868-6.389-14.6-3.346-24.95s14-38.945,14-38.945,3.651,6.39,8.823,5.173,46.855-63.895,46.855-63.895,11.258,24.645-.608,42.6c-12.17,17.951-24.036,21.3-24.036,21.3a45.57,45.57,0,0,0,32.252-8.216c6.389,14.909,12.474,30.426,12.779,32.556-.912,2.129-13.084,31.338-14.3,33.163-.608.608-4.868,1.826-7.91,2.434-5.172,1.522-8.216,2.434-9.432,3.347-2.13,1.825-11.866,28.6-16.43,41.683a25.121,25.121,0,0,0-14.909,10.649c2.13-1.522,8.824-2.434,13.692-3.042,4.259-.3,17.343,6.694,20.689,19.777v.608A19.311,19.311,0,0,1,235.589,349.486Zm-28.6,3.651c2.738-3.956,2.434-10.649,2.738-12.779s.913-6.086,3.347-6.694,8.215.3,8.215,4.564c0,3.956-4.26,4.868-7.3,7.606C211.857,347.964,207.6,352.528,206.989,353.136Zm121.4-58.113a144.383,144.383,0,0,0,2.434-39.857,111.5,111.5,0,0,1,21.3,54.766c.3,2.434,2.738,4.868,5.172,7.3,2.13,1.826,4.564,4.26,4.564,5.781a122.353,122.353,0,0,1-1.826,20.993c-.3.913-3.042,2.434-5.172,3.652-3.043,1.521-5.781,3.042-6.39,5.476a113.3,113.3,0,0,1-40.161,58.722C336.6,382.345,350.294,333.664,328.388,295.023ZM309.219,414.6C329,399.383,344.209,378.085,350.9,354.049c.3-.912,3.042-2.434,4.868-3.651,3.042-1.522,6.086-3.346,6.694-5.781a126.79,126.79,0,0,0,1.826-21.6c0-2.738-2.738-5.477-5.477-8.216-1.521-1.825-3.955-3.955-3.955-5.476a118.87,118.87,0,0,0-24.949-60.547c-6.086-36.511-30.426-47.768-31.034-48.073.608.913,16.429,23.732,5.476,50.507-11.258,27.079-40.162,22.82-42.6,23.124-2.434,0-11.866,12.17-23.732,34.685a33.407,33.407,0,0,0-15.214-.912c5.477-15.214,13.692-36.816,15.214-38.641.608-.609,5.172-1.826,8.215-2.738,5.781-1.522,8.52-2.434,9.432-3.652.608-.912,3.651-7.91,6.694-15.213a71.6,71.6,0,0,0,10.345-.913c.608-.608,6.39-15.517,6.39-17.343,0-1.521-11.866-31.034-16.43-42.291a73.763,73.763,0,0,0,6.39-8.824,124.477,124.477,0,0,1,40.162,236.1Z" transform="translate(735.156 1210.031)" fill="#1b314f"/>
      <path id="路径_20" data-name="路径 20" d="M237.049,257.9c5.781-6.694,2.738-19.168-7.91-21.3,2.738-6.39,6.693-19.168,6.693-19.168S204.8,266.11,202.059,267.023s-5.476-9.736-5.476-9.736c-5.781,22.212,9.736,25.254,11.562,18.256C216.663,273.412,231.267,264.284,237.049,257.9Z" transform="translate(726.394 1202.433)" fill="#1b314f"/>
      <path id="路径_21" data-name="路径 21" d="M211.777,271.743,227.6,244.664s9.128,4.564,4.564,11.866C226.381,265.049,211.777,271.743,211.777,271.743Z" transform="translate(725.196 1200.452)" fill="#ffd923"/>
      <path id="路径_22" data-name="路径 22" d="M421.52,398.958a171.376,171.376,0,0,1-15.821,18.56c39.249-75.456,1.826-144.523.3-147.261,2.738,2.738,5.476,5.781,7.91,8.52C444.036,312.245,447.686,362.447,421.52,398.958Z" transform="translate(711.09 1198.591)" fill="#d82122"/>
      <path id="路径_23" data-name="路径 23" d="M449.2,294.135c-13.691-36.815-33.163-68.154-76.064-96.449-41.379-27.384-85.8-25.254-88.234-24.95h-.608a25.348,25.348,0,0,1,4.563-1.217,193.8,193.8,0,0,1,33.773-7c32.252-4.564,64.807,6.39,87.018,29.817l.608.608C435.509,221.721,448.592,255.19,449.2,294.135Z" transform="translate(719.921 1206.356)" fill="#d82122"/>
      <path id="路径_24" data-name="路径 24" d="M359.1,140.744c-45.335-8.519-74.543-4.26-95.537,3.652A87.31,87.31,0,0,0,259,133.137c-6.39,7.606-13.083,16.734-17.343,22.515-11.562,7.911-16.43,15.518-16.43,15.518,6.694-22.82,26.166-39.858,49.9-44.117a122.61,122.61,0,0,1,21.907-1.826A142.914,142.914,0,0,1,359.1,140.744Z" transform="translate(724.217 1209.14)" fill="#d82122"/>
      <path id="路径_25" data-name="路径 25" d="M186.808,201.429c-35.6-1.217-23.731-42.6-23.123-45.03C163.684,156.7,166.118,188.954,186.808,201.429Z" transform="translate(728.867 1206.872)" fill="#d82122"/>
      <path id="路径_26" data-name="路径 26" d="M224.194,124.57c-27.384,16.43-21.907,55.679-21.907,55.679C176.121,140.392,222.064,125.482,224.194,124.57Z" transform="translate(726.47 1209.188)" fill="#d82122"/>
      <path id="路径_27" data-name="路径 27" d="M174.09,215.293c1.826,1.522,3.652,4.26,1.522,8.215-1.217,2.13-3.042,1.826-5.781.609-3.651-1.826-25.557-14.6-45.334-27.688,22.515,7.91,45.334,16.43,48.985,18.256Z" transform="translate(731.545 1203.961)" fill="#fff"/>
    </g>
  </g>
</svg>
