<svg xmlns="http://www.w3.org/2000/svg" xmlns:xlink="http://www.w3.org/1999/xlink" width="124" height="124" viewBox="0 0 124 124">
  <defs>
    <clipPath id="clip-path">
      <rect id="矩形_49" data-name="矩形 49" width="65" height="124" fill="#9198ff" stroke="#707070" stroke-width="1"/>
    </clipPath>
    <clipPath id="clip-path-2">
      <rect id="矩形_48" data-name="矩形 48" width="124" height="124" fill="#9198ff"/>
    </clipPath>
  </defs>
  <g id="组_110" data-name="组 110" transform="translate(1626 -51)">
    <rect id="矩形_848" data-name="矩形 848" width="124" height="124" transform="translate(-1626 51)" fill="none"/>
    <g id="蒙版组_7" data-name="蒙版组 7" transform="translate(-1567 51)" opacity="0.2" clip-path="url(#clip-path)">
      <g id="组_47" data-name="组 47" transform="translate(3)">
        <g id="组_46" data-name="组 46" clip-path="url(#clip-path-2)">
          <path id="路径_309" data-name="路径 309" d="M.915,2.513C.678,2.123.428,1.739.163,1.37A.874.874,0,0,1,.25.25,1.428,1.428,0,0,0,.363.16.912.912,0,0,1,.915,0,.94.94,0,0,1,1.47.16c.031.031.075.066.1.09a.864.864,0,0,1,.09,1.12c-.268.368-.515.752-.749,1.142" transform="translate(61.085 -0.425)" fill="#9198ff"/>
          <path id="路径_310" data-name="路径 310" d="M0,.914Q.585.558,1.139.162A.882.882,0,0,1,2.262.249c.028.037.059.072.087.112a.859.859,0,0,1,.159.552.866.866,0,0,1-.159.549c-.028.041-.059.072-.087.109a.878.878,0,0,1-1.123.09C.771,1.4.39,1.145,0,.914" transform="translate(121.469 60.643)" fill="#9198ff"/>
          <path id="路径_311" data-name="路径 311" d="M.915,0c.234.39.481.771.749,1.139a.867.867,0,0,1-.09,1.123,1.294,1.294,0,0,0-.1.087.921.921,0,0,1-.555.162A.9.9,0,0,1,.363,2.35,1.37,1.37,0,0,0,.25,2.262.878.878,0,0,1,.163,1.139Q.561.587.915,0" transform="translate(61.085 121.026)" fill="#9198ff"/>
          <path id="路径_312" data-name="路径 312" d="M2.513.914c-.39.231-.774.484-1.139.749a.874.874,0,0,1-1.12-.09,1.357,1.357,0,0,0-.094-.11A.927.927,0,0,1,0,.914.918.918,0,0,1,.16.362,1.371,1.371,0,0,0,.253.249.877.877,0,0,1,1.374.162c.365.265.749.515,1.139.752" transform="translate(0.018 60.643)" fill="#9198ff"/>
          <path id="路径_313" data-name="路径 313" d="M7.1,3.732c-.493.855-1.033,1.7-1.6,2.509a35.073,35.073,0,0,1-4.026,4.79A.867.867,0,1,1,.253,9.8H.259A33.193,33.193,0,0,0,4.085,5.252,34,34,0,0,0,7.1,0a34.781,34.781,0,0,0,3.015,5.252A32.936,32.936,0,0,0,13.934,9.8h.006a.864.864,0,0,1-1.211,1.233A34.415,34.415,0,0,1,8.7,6.241C8.132,5.43,7.6,4.587,7.1,3.732" transform="translate(54.901 25.742)" fill="#9198ff"/>
          <path id="路径_314" data-name="路径 314" d="M7.545,7.1c-.852-.5-1.7-1.036-2.512-1.6A34.96,34.96,0,0,1,.249,1.471.857.857,0,0,1,.261.25a.861.861,0,0,1,1.214,0V.26A33.7,33.7,0,0,0,6.031,4.08,34.043,34.043,0,0,0,11.274,7.1a33.77,33.77,0,0,0-5.243,3.015,33.043,33.043,0,0,0-4.556,3.823v.006A.867.867,0,0,1,.249,12.717,35.184,35.184,0,0,1,5.033,8.7c.814-.565,1.66-1.1,2.512-1.6" transform="translate(86.538 54.46)" fill="#9198ff"/>
          <path id="路径_315" data-name="路径 315" d="M7.1,7.543c.5-.852,1.033-1.694,1.6-2.509A34.386,34.386,0,0,1,12.729.247.857.857,0,0,1,13.94.254a.862.862,0,0,1,0,1.226h-.006a32.6,32.6,0,0,0-3.82,4.55A34.723,34.723,0,0,0,7.1,11.276,33.942,33.942,0,0,0,4.085,6.03,32.853,32.853,0,0,0,.259,1.48H.253A.867.867,0,1,1,1.473.247,35.044,35.044,0,0,1,5.5,5.034c.568.814,1.108,1.657,1.6,2.509" transform="translate(54.901 86.093)" fill="#9198ff"/>
          <path id="路径_316" data-name="路径 316" d="M3.735,7.1c.849.5,1.691,1.033,2.506,1.6a35.054,35.054,0,0,1,4.79,4.022.875.875,0,0,1-.009,1.223.861.861,0,0,1-1.214,0L9.8,13.934a33.14,33.14,0,0,0-4.547-3.823A34,34,0,0,0,0,7.1,34.277,34.277,0,0,0,5.252,4.079,33.8,33.8,0,0,0,9.8.26L9.808.25a.861.861,0,0,1,1.214,0,.871.871,0,0,1,.009,1.22,34.832,34.832,0,0,1-4.79,4.022c-.814.568-1.657,1.1-2.506,1.6" transform="translate(26.185 54.46)" fill="#9198ff"/>
          <path id="路径_317" data-name="路径 317" d="M4.862,2.128c-4.2,6.572-4.1,16.009,0,24.54,4.1-8.532,4.2-17.968,0-24.54m0,28.167A33.85,33.85,0,0,1,.106,15.971,23.04,23.04,0,0,1,3.972.358.48.48,0,0,1,4.063.249a.87.87,0,0,1,.8-.228.866.866,0,0,1,.8.228c.041.037.059.069.1.109A23.053,23.053,0,0,1,9.611,15.971,33.926,33.926,0,0,1,4.861,30.3" transform="translate(57.138 -0.424)" fill="#9198ff"/>
          <path id="路径_318" data-name="路径 318" d="M28.167,4.859C21.595.659,12.158.752,3.63,4.859c8.529,4.107,17.965,4.194,24.537,0M0,4.859A33.858,33.858,0,0,1,14.327.106,23.025,23.025,0,0,1,29.936,3.969a.727.727,0,0,1,.112.087.872.872,0,0,1,.225.8.87.87,0,0,1-.225.8.989.989,0,0,1-.112.087A23.044,23.044,0,0,1,14.327,9.611,33.944,33.944,0,0,1,0,4.859" transform="translate(93.684 56.698)" fill="#9198ff"/>
          <path id="路径_319" data-name="路径 319" d="M4.862,28.17c4.2-6.575,4.1-16.015,0-24.544-4.1,8.529-4.2,17.968,0,24.544M4.862,0a33.94,33.94,0,0,1,4.75,14.324A23.044,23.044,0,0,1,5.754,29.936a1.439,1.439,0,0,1-.1.112.864.864,0,0,1-.8.225.868.868,0,0,1-.8-.225.571.571,0,0,1-.091-.112A23.031,23.031,0,0,1,.106,14.324,33.865,33.865,0,0,1,4.862,0" transform="translate(57.138 93.24)" fill="#9198ff"/>
          <path id="路径_320" data-name="路径 320" d="M2.128,4.859c6.575,4.194,16.015,4.107,24.54,0C18.143.752,8.7.658,2.128,4.859m28.173,0A33.984,33.984,0,0,1,15.968,9.611,23.052,23.052,0,0,1,.358,5.745a.928.928,0,0,1-.106-.087.866.866,0,0,1-.231-.8.867.867,0,0,1,.231-.8.685.685,0,0,1,.106-.087A23.034,23.034,0,0,1,15.968.106,33.9,33.9,0,0,1,30.3,4.859" transform="translate(0.019 56.698)" fill="#9198ff"/>
          <path id="路径_321" data-name="路径 321" d="M3.186,5.246,3.177,5.24A20.682,20.682,0,0,1,0,4.222,20.7,20.7,0,0,1,3.177,3.2l.009-.006L3.2,3.18A20.524,20.524,0,0,1,4.219,0,21.968,21.968,0,0,1,5.246,3.18v.012l.016.006A20.7,20.7,0,0,1,8.438,4.222,20.682,20.682,0,0,1,5.261,5.239l-.016.006v.016a22.092,22.092,0,0,1-1.027,3.18A20.632,20.632,0,0,1,3.2,5.261l-.009-.016" transform="translate(57.781 57.338)" fill="#9198ff"/>
          <path id="路径_322" data-name="路径 322" d="M13.583,15.916A19.236,19.236,0,0,0,1.628,25.3a.856.856,0,0,1-1.161.362.877.877,0,0,1-.212-.153A.868.868,0,0,1,.1,24.492a20.865,20.865,0,0,1,11.428-9.739A20.888,20.888,0,0,1,.1,5.007.858.858,0,0,1,.255,4a.692.692,0,0,1,.212-.156A.853.853,0,0,1,1.628,4.2a19.2,19.2,0,0,0,11.955,9.381A19.133,19.133,0,0,0,4.2,1.63.867.867,0,0,1,3.838.46,1.3,1.3,0,0,1,3.994.251.869.869,0,0,1,5.008.1a20.839,20.839,0,0,1,9.746,11.425A20.846,20.846,0,0,1,24.5.1a.861.861,0,0,1,1.011.15.831.831,0,0,1,.156.209A.868.868,0,0,1,25.3,1.63a19.149,19.149,0,0,0-9.377,11.952A19.156,19.156,0,0,0,27.873,4.2a.861.861,0,0,1,1.167-.362A.644.644,0,0,1,29.249,4,.853.853,0,0,1,29.4,5.007a20.854,20.854,0,0,1-11.42,9.745,20.831,20.831,0,0,1,11.42,9.74.863.863,0,0,1-.153,1.017.8.8,0,0,1-.209.153.864.864,0,0,1-1.167-.362,19.191,19.191,0,0,0-11.949-9.384A19.155,19.155,0,0,0,25.3,27.871a.865.865,0,0,1,.362,1.167.831.831,0,0,1-.156.209.861.861,0,0,1-1.011.15,20.848,20.848,0,0,1-9.743-11.415A20.841,20.841,0,0,1,5.008,29.4a.869.869,0,0,1-1.014-.15,1.3,1.3,0,0,1-.156-.209.863.863,0,0,1,.362-1.17,19.139,19.139,0,0,0,9.381-11.955" transform="translate(47.246 46.808)" fill="#9198ff"/>
          <path id="路径_323" data-name="路径 323" d="M1.56,14.072A5.41,5.41,0,0,1,.022,9.719a5.205,5.205,0,0,1,3.607-4.69C6.466,4.248,8,5.637,8.476,7.191a3.188,3.188,0,0,1-.93,3.32,2.477,2.477,0,0,1-1.869.524,2.211,2.211,0,0,1-1.5-.883A2.041,2.041,0,0,1,3.818,8.56a.867.867,0,0,1,1.7.337.26.26,0,0,0,.056.234.485.485,0,0,0,.3.187A.932.932,0,0,0,6.4,9.229a1.489,1.489,0,0,0,.431-1.52C6.5,6.642,5.552,6.3,4.085,6.7a3.474,3.474,0,0,0-2.34,3.167,3.656,3.656,0,0,0,2.181,3.767c2.085.983,4.79.019,7.411-2.649,1.027-1.017,1.941-1.975,2.834-2.9C18.2,3.874,21.386.553,27.274,0a.864.864,0,0,1,.165,1.719c-5.258.493-7.948,3.3-12.024,7.555-.9.93-1.822,1.894-2.855,2.924-3.155,3.211-6.578,4.31-9.371,3A5.832,5.832,0,0,1,1.56,14.072" transform="translate(17.297 63.609)" fill="#9198ff"/>
          <path id="路径_324" data-name="路径 324" d="M14.071,26.656A5.381,5.381,0,0,1,9.727,28.2a5.184,5.184,0,0,1-4.693-3.6c-.783-2.843.6-4.372,2.159-4.853a3.2,3.2,0,0,1,3.317.933,2.477,2.477,0,0,1,.524,1.866,2.229,2.229,0,0,1-.883,1.5,2.051,2.051,0,0,1-1.592.359.866.866,0,1,1,.334-1.7.291.291,0,0,0,.237-.059.491.491,0,0,0,.187-.3.9.9,0,0,0-.09-.521A1.476,1.476,0,0,0,7.705,21.4c-1.058.328-1.411,1.273-1.008,2.737a3.476,3.476,0,0,0,3.177,2.35,3.672,3.672,0,0,0,3.76-2.181c.98-2.091.012-4.8-2.646-7.418C9.965,15.856,9,14.942,8.083,14.052,3.876,10.02.553,6.837,0,.949A.874.874,0,0,1,.784,0,.866.866,0,0,1,1.72.79c.493,5.249,3.3,7.939,7.555,12.021.942.9,1.9,1.819,2.927,2.852,3.211,3.161,4.306,6.581,3,9.371a5.607,5.607,0,0,1-1.127,1.623" transform="translate(64.05 78.037)" fill="#9198ff"/>
          <path id="路径_325" data-name="路径 325" d="M26.652,1.664A5.418,5.418,0,0,1,28.2,6.017a5.2,5.2,0,0,1-3.611,4.69c-2.84.783-4.372-.609-4.849-2.163a3.21,3.21,0,0,1,.93-3.32A2.474,2.474,0,0,1,22.536,4.7a2.191,2.191,0,0,1,1.5.883A2,2,0,0,1,24.4,7.175a.865.865,0,1,1-1.7-.324.3.3,0,0,0-.056-.237.513.513,0,0,0-.309-.2.973.973,0,0,0-.518.094,1.479,1.479,0,0,0-.434,1.523c.331,1.061,1.276,1.407,2.74,1A3.466,3.466,0,0,0,26.47,5.864,3.671,3.671,0,0,0,24.292,2.1C22.2,1.117,19.5,2.084,16.877,4.756c-1.02,1.011-1.938,1.972-2.827,2.9C10.019,11.862,6.83,15.183.944,15.732a.862.862,0,1,1-.162-1.716c5.252-.493,7.945-3.3,12.017-7.555.9-.933,1.822-1.894,2.855-2.924,3.161-3.214,6.584-4.3,9.371-3A5.656,5.656,0,0,1,26.651,1.66" transform="translate(78.488 43.769)" fill="#9198ff"/>
          <path id="路径_326" data-name="路径 326" d="M1.67,1.564A5.4,5.4,0,0,1,6.017.023,5.172,5.172,0,0,1,10.7,3.636C11.49,6.473,10.1,8,8.548,8.483A3.21,3.21,0,0,1,5.225,7.55,2.466,2.466,0,0,1,4.7,5.677a2.189,2.189,0,0,1,.889-1.5A2.009,2.009,0,0,1,7.178,3.82a.863.863,0,1,1-.328,1.7.306.306,0,0,0-.237.059.519.519,0,0,0-.2.3,1.061,1.061,0,0,0,.1.526,1.482,1.482,0,0,0,1.526.431C9.094,6.5,9.443,5.555,9.047,4.089A3.5,3.5,0,0,0,5.873,1.742,3.679,3.679,0,0,0,2.1,3.923c-.983,2.091-.009,4.8,2.653,7.415,1.014,1.03,1.975,1.947,2.9,2.837,4.21,4.029,7.533,7.212,8.082,13.1a.877.877,0,0,1-.786.946.865.865,0,0,1-.939-.786c-.487-5.246-3.3-7.939-7.555-12.017-.933-.9-1.9-1.822-2.927-2.855C.325,9.4-.767,5.989.54,3.19A5.674,5.674,0,0,1,1.67,1.564" transform="translate(44.209 16.85)" fill="#9198ff"/>
          <path id="路径_327" data-name="路径 327" d="M1.56,1.664A5.414,5.414,0,0,0,.022,6.017a5.2,5.2,0,0,0,3.607,4.69C6.466,11.491,8,10.1,8.476,8.545a3.192,3.192,0,0,0-.93-3.32A2.463,2.463,0,0,0,5.677,4.7a2.211,2.211,0,0,0-1.5.883,2.034,2.034,0,0,0-.359,1.588.866.866,0,0,0,1.7-.325.257.257,0,0,1,.056-.237.489.489,0,0,1,.3-.2,1.015,1.015,0,0,1,.526.1,1.491,1.491,0,0,1,.431,1.523c-.331,1.061-1.276,1.407-2.743,1a3.474,3.474,0,0,1-2.34-3.167A3.658,3.658,0,0,1,3.926,2.1c2.085-.983,4.79-.016,7.411,2.656,1.027,1.011,1.941,1.972,2.834,2.9,4.029,4.207,7.215,7.527,13.1,8.076a.862.862,0,1,0,.165-1.716c-5.258-.493-7.948-3.3-12.024-7.555-.9-.933-1.822-1.894-2.855-2.924C9.406.322,5.982-.767,3.189.541A5.759,5.759,0,0,0,1.56,1.664" transform="translate(17.297 43.769)" fill="#9198ff"/>
          <path id="路径_328" data-name="路径 328" d="M1.67,26.656A5.38,5.38,0,0,0,6.017,28.2,5.172,5.172,0,0,0,10.7,24.6c.786-2.843-.6-4.372-2.156-4.853a3.21,3.21,0,0,0-3.323.933A2.463,2.463,0,0,0,4.7,22.543a2.2,2.2,0,0,0,.889,1.5,2.033,2.033,0,0,0,1.585.359.866.866,0,0,0-.328-1.7.282.282,0,0,1-.237-.059.51.51,0,0,1-.2-.3,1.046,1.046,0,0,1,.094-.521A1.476,1.476,0,0,1,8.036,21.4c1.058.328,1.407,1.273,1.011,2.737a3.489,3.489,0,0,1-3.174,2.35A3.675,3.675,0,0,1,2.1,24.3c-.983-2.091-.009-4.8,2.653-7.418,1.014-1.03,1.975-1.944,2.9-2.834,4.21-4.032,7.533-7.215,8.082-13.1A.879.879,0,0,0,14.954,0a.869.869,0,0,0-.939.786c-.487,5.249-3.3,7.939-7.555,12.021-.933.9-1.9,1.819-2.927,2.852C.325,18.824-.767,22.244.54,25.034a5.616,5.616,0,0,0,1.13,1.623" transform="translate(44.209 78.037)" fill="#9198ff"/>
          <path id="路径_329" data-name="路径 329" d="M26.652,14.072A5.414,5.414,0,0,0,28.2,9.719a5.2,5.2,0,0,0-3.611-4.69c-2.84-.78-4.372.609-4.849,2.163a3.206,3.206,0,0,0,.93,3.32,2.488,2.488,0,0,0,1.869.524,2.191,2.191,0,0,0,1.5-.883A2.006,2.006,0,0,0,24.4,8.561a.867.867,0,1,0-1.7.339.307.307,0,0,1-.056.234.509.509,0,0,1-.309.187.9.9,0,0,1-.518-.091,1.478,1.478,0,0,1-.434-1.52c.331-1.067,1.276-1.414,2.74-1.011A3.466,3.466,0,0,1,26.47,9.866a3.668,3.668,0,0,1-2.181,3.767c-2.091.983-4.787.019-7.415-2.649-1.02-1.017-1.938-1.975-2.827-2.9C10.019,3.874,6.83.553.944,0A.858.858,0,0,0,0,.784a.857.857,0,0,0,.777.939c5.252.493,7.945,3.3,12.017,7.555.9.93,1.822,1.894,2.855,2.924,3.161,3.211,6.584,4.31,9.371,3a5.727,5.727,0,0,0,1.626-1.127" transform="translate(78.488 63.609)" fill="#9198ff"/>
          <path id="路径_330" data-name="路径 330" d="M14.071,1.564A5.4,5.4,0,0,0,9.727.023,5.184,5.184,0,0,0,5.034,3.636c-.783,2.837.6,4.364,2.16,4.847a3.2,3.2,0,0,0,3.317-.933,2.48,2.48,0,0,0,.524-1.872,2.216,2.216,0,0,0-.883-1.5A2.026,2.026,0,0,0,8.56,3.82a.864.864,0,0,0,.334,1.694.318.318,0,0,1,.237.059.5.5,0,0,1,.187.3.913.913,0,0,1-.09.524,1.482,1.482,0,0,1-1.523.431C6.647,6.5,6.3,5.555,6.7,4.089A3.486,3.486,0,0,1,9.874,1.742a3.676,3.676,0,0,1,3.76,2.181c.98,2.091.012,4.8-2.646,7.415-1.023,1.03-1.988,1.947-2.9,2.837C3.876,18.2.553,21.386,0,27.275a.872.872,0,0,0,.78.946.862.862,0,0,0,.936-.786c.493-5.246,3.3-7.939,7.555-12.017.942-.9,1.9-1.822,2.927-2.855,3.211-3.161,4.306-6.572,3-9.371a5.665,5.665,0,0,0-1.127-1.626" transform="translate(64.05 16.85)" fill="#9198ff"/>
          <path id="路径_331" data-name="路径 331" d="M22.113,36.551a12.026,12.026,0,0,0-2.8-2.085A12.528,12.528,0,0,0,7.664,34.46a10.583,10.583,0,0,0-5.826,8.173,12.235,12.235,0,0,0,3.526,10.41c.05.044.09.084.137.122a1.084,1.084,0,0,1,.119.137,12.276,12.276,0,0,0,10.413,3.526A10.575,10.575,0,0,0,24.2,51a12.507,12.507,0,0,0,0-11.655,12.039,12.039,0,0,0-2.088-2.8m14.442,0a11.755,11.755,0,0,0-2.081,2.8A12.516,12.516,0,0,0,34.461,51a10.585,10.585,0,0,0,8.176,5.826A12.263,12.263,0,0,0,53.044,53.3c.047-.05.084-.087.128-.137s.084-.078.128-.122a12.216,12.216,0,0,0,3.526-10.41A10.569,10.569,0,0,0,51,34.46a12.515,12.515,0,0,0-11.646.006,12.042,12.042,0,0,0-2.8,2.085m0-14.439a11.955,11.955,0,0,0,2.8,2.085A12.5,12.5,0,0,0,51,24.2a10.564,10.564,0,0,0,5.826-8.17A12.226,12.226,0,0,0,53.3,5.619c-.044-.041-.087-.084-.128-.119-.044-.05-.081-.094-.128-.14A12.252,12.252,0,0,0,42.637,1.837a10.578,10.578,0,0,0-8.176,5.826,12.509,12.509,0,0,0,.012,11.652,11.755,11.755,0,0,0,2.081,2.8m-14.442,0a12.039,12.039,0,0,0,2.088-2.8,12.5,12.5,0,0,0,0-11.652,10.568,10.568,0,0,0-8.17-5.826A12.264,12.264,0,0,0,5.62,5.36c-.044.047-.078.09-.119.14-.047.034-.087.078-.137.119A12.245,12.245,0,0,0,1.838,16.033,10.578,10.578,0,0,0,7.664,24.2a12.51,12.51,0,0,0,11.652,0,11.938,11.938,0,0,0,2.8-2.085m-5.38,19.819a5.618,5.618,0,0,0-5.118-.409,4.139,4.139,0,0,0-2.191,4.843,3.275,3.275,0,0,0,1.117,1.76,3.323,3.323,0,0,0,1.754,1.12,4.161,4.161,0,0,0,4.856-2.2,5.645,5.645,0,0,0-.418-5.115m25.2,0a5.6,5.6,0,0,0-.409,5.115,4.146,4.146,0,0,0,4.849,2.2,3.329,3.329,0,0,0,1.757-1.12,3.275,3.275,0,0,0,1.111-1.76,4.129,4.129,0,0,0-2.191-4.843,5.618,5.618,0,0,0-5.118.409m0-25.2a5.609,5.609,0,0,0,5.118.412A4.129,4.129,0,0,0,49.24,12.3a3.237,3.237,0,0,0-1.111-1.751,3.261,3.261,0,0,0-1.757-1.123,4.133,4.133,0,0,0-4.849,2.191,5.6,5.6,0,0,0,.409,5.115m-25.2,0a5.642,5.642,0,0,0,.418-5.115A4.148,4.148,0,0,0,12.3,9.423a3.255,3.255,0,0,0-1.754,1.123A3.237,3.237,0,0,0,9.424,12.3a4.139,4.139,0,0,0,2.191,4.843,5.61,5.61,0,0,0,5.118-.412M9.312,49.355A4.81,4.81,0,0,1,7.755,46.8,5.866,5.866,0,0,1,10.9,39.946a7.454,7.454,0,0,1,7.084.736,7.446,7.446,0,0,1,.736,7.081,5.874,5.874,0,0,1-6.859,3.146,4.832,4.832,0,0,1-2.55-1.554m40.044,0A4.805,4.805,0,0,1,46.8,50.909a5.858,5.858,0,0,1-6.85-3.146,7.435,7.435,0,0,1,.727-7.081,7.454,7.454,0,0,1,7.084-.736A5.866,5.866,0,0,1,50.909,46.8a4.825,4.825,0,0,1-1.554,2.553m0-40.04a4.819,4.819,0,0,1,1.554,2.546,5.868,5.868,0,0,1-3.146,6.856,7.462,7.462,0,0,1-7.084-.733,7.437,7.437,0,0,1-.727-7.081A5.858,5.858,0,0,1,46.8,7.751a4.8,4.8,0,0,1,2.553,1.563m-40.044,0a4.826,4.826,0,0,1,2.55-1.563A5.874,5.874,0,0,1,18.72,10.9a7.448,7.448,0,0,1-.736,7.081,7.462,7.462,0,0,1-7.084.733,5.868,5.868,0,0,1-3.146-6.856A4.8,4.8,0,0,1,9.312,9.314M4.275,54.391,4.2,54.316A4.021,4.021,0,0,1,3.869,54,14.04,14.04,0,0,1,.128,42.4a12.255,12.255,0,0,1,6.744-9.471,14.247,14.247,0,0,1,13.263.016,13.655,13.655,0,0,1,3.2,2.39,13.874,13.874,0,0,1,2.39,3.2A14.265,14.265,0,0,1,25.744,51.8a12.24,12.24,0,0,1-9.474,6.744A14.053,14.053,0,0,1,4.671,54.8c-.115-.112-.218-.225-.318-.328a1,1,0,0,1-.078-.084m50.12,0c-.031.028-.053.059-.078.084-.1.1-.209.215-.318.328a14.07,14.07,0,0,1-11.6,3.732,12.26,12.26,0,0,1-9.471-6.744,14.256,14.256,0,0,1,.022-13.263,13.8,13.8,0,0,1,5.589-5.589,14.234,14.234,0,0,1,13.256-.016,12.262,12.262,0,0,1,6.75,9.471,14.091,14.091,0,0,1-3.738,11.6c-.112.115-.215.218-.328.321a.887.887,0,0,0-.081.075m0-50.123a.469.469,0,0,0,.081.078c.112.106.215.209.328.318a14.1,14.1,0,0,1,3.738,11.6,12.257,12.257,0,0,1-6.75,9.471,14.261,14.261,0,0,1-13.256-.012A13.848,13.848,0,0,1,32.95,20.13a14.262,14.262,0,0,1-.022-13.266A12.253,12.253,0,0,1,42.4.127,14.043,14.043,0,0,1,54,3.866c.109.1.215.215.318.325.025.022.047.05.078.078m-50.12,0a.614.614,0,0,1,.078-.078,4.444,4.444,0,0,1,.318-.325A14.027,14.027,0,0,1,16.268.127a12.233,12.233,0,0,1,9.474,6.744,14.271,14.271,0,0,1-.019,13.266,14,14,0,0,1-5.589,5.589,14.274,14.274,0,0,1-13.263.012A12.25,12.25,0,0,1,.128,16.267a14.047,14.047,0,0,1,3.738-11.6c.1-.109.215-.212.331-.318a.912.912,0,0,0,.078-.078" transform="translate(32.666 32.224)" fill="#9198ff"/>
          <path id="路径_332" data-name="路径 332" d="M1.285,11.625a1.15,1.15,0,0,1-.175-.243A11.674,11.674,0,0,1,1.66.422a.857.857,0,0,1,1.183-.3.867.867,0,0,1,.3,1.186,10.177,10.177,0,0,0-.846,1.8A9.873,9.873,0,0,0,2.327,9.8,9.882,9.882,0,0,0,6.54,4.6c.112-.315.206-.64.293-.967a.858.858,0,0,1,1.039-.64.869.869,0,0,1,.633,1.052,10.653,10.653,0,0,1-.334,1.133,11.581,11.581,0,0,1-5.9,6.616.877.877,0,0,1-.658.034.815.815,0,0,1-.328-.2" transform="translate(26.054 75.155)" fill="#9198ff"/>
          <path id="路径_333" data-name="路径 333" d="M11.624,7.244a.981.981,0,0,1-.24.178,11.622,11.622,0,0,1-8.856.443A12.253,12.253,0,0,1,.421,6.872.864.864,0,0,1,1.31,5.39a10.24,10.24,0,0,0,1.79.842,9.957,9.957,0,0,0,6.7-.021A9.875,9.875,0,0,0,4.61,1.989c-.321-.109-.652-.206-.977-.287A.872.872,0,0,1,2.989.656.875.875,0,0,1,4.044.026c.381.09.765.209,1.139.331a11.626,11.626,0,0,1,6.613,5.9.868.868,0,0,1,.028.668.746.746,0,0,1-.2.318" transform="translate(75.597 88.971)" fill="#9198ff"/>
          <path id="路径_334" data-name="路径 334" d="M7.246.248A.9.9,0,0,1,7.418.5a11.606,11.606,0,0,1,.446,8.85,12.413,12.413,0,0,1-.986,2.113.879.879,0,0,1-1.192.3.869.869,0,0,1-.3-1.183,9.948,9.948,0,0,0,.846-1.807A9.846,9.846,0,0,0,6.21,2.077a9.864,9.864,0,0,0-4.219,5.2,9.315,9.315,0,0,0-.287.967.871.871,0,0,1-1.045.64A.875.875,0,0,1,.025,7.831,10.361,10.361,0,0,1,.366,6.7,11.572,11.572,0,0,1,6.257.083.9.9,0,0,1,6.925.048a.885.885,0,0,1,.321.2" transform="translate(89.414 36.085)" fill="#9198ff"/>
          <path id="路径_335" data-name="路径 335" d="M.25,1.286A1.049,1.049,0,0,1,.5,1.111a11.717,11.717,0,0,1,10.956.549.863.863,0,0,1-.883,1.482,10.022,10.022,0,0,0-8.494-.824,9.863,9.863,0,0,0,5.2,4.222c.325.112.649.209.967.287a.875.875,0,0,1,.643,1.045A.856.856,0,0,1,7.84,8.5c-.387-.09-.765-.206-1.142-.331a11.606,11.606,0,0,1-6.613-5.9A.862.862,0,0,1,.051,1.6a.8.8,0,0,1,.2-.321" transform="translate(36.526 25.61)" fill="#9198ff"/>
          <path id="路径_336" data-name="路径 336" d="M1.285.248A1.171,1.171,0,0,0,1.11.495a11.62,11.62,0,0,0-.44,8.85,11.966,11.966,0,0,0,.989,2.113.864.864,0,0,0,1.482-.886A10.162,10.162,0,0,1,2.3,8.764a9.864,9.864,0,0,1,.031-6.687,9.882,9.882,0,0,1,4.213,5.2c.112.315.206.64.293.967a.86.86,0,0,0,1.039.64.87.87,0,0,0,.633-1.052A11.047,11.047,0,0,0,8.172,6.7,11.577,11.577,0,0,0,2.271.083.877.877,0,0,0,1.613.048a.815.815,0,0,0-.328.2" transform="translate(26.054 36.085)" fill="#9198ff"/>
          <path id="路径_337" data-name="路径 337" d="M.25,7.244a.976.976,0,0,0,.25.178,11.605,11.605,0,0,0,8.85.443,12.144,12.144,0,0,0,2.106-.992.863.863,0,0,0-.883-1.482,10.224,10.224,0,0,1-1.8.843,9.948,9.948,0,0,1-6.691-.022,9.877,9.877,0,0,1,5.2-4.222c.325-.109.649-.206.967-.287A.863.863,0,1,0,7.84.026c-.387.09-.765.209-1.14.33a11.617,11.617,0,0,0-6.613,5.9.869.869,0,0,0-.034.668.81.81,0,0,0,.2.318" transform="translate(36.526 88.971)" fill="#9198ff"/>
          <path id="路径_338" data-name="路径 338" d="M7.246,11.625a.883.883,0,0,0,.172-.243,11.623,11.623,0,0,0,.446-8.856,12.1,12.1,0,0,0-.986-2.1.868.868,0,0,0-1.492.886,9.961,9.961,0,0,1,.846,1.8A9.855,9.855,0,0,1,6.21,9.8,9.864,9.864,0,0,1,1.991,4.6,9.315,9.315,0,0,1,1.7,3.63.868.868,0,0,0,.655,2.99a.873.873,0,0,0-.63,1.052,10.011,10.011,0,0,0,.34,1.133,11.576,11.576,0,0,0,5.892,6.616.9.9,0,0,0,.668.034.885.885,0,0,0,.321-.2" transform="translate(89.414 75.155)" fill="#9198ff"/>
          <path id="路径_339" data-name="路径 339" d="M11.624,1.286a1.056,1.056,0,0,0-.24-.175A11.607,11.607,0,0,0,2.527.674,11.778,11.778,0,0,0,.421,1.66a.863.863,0,0,0-.3,1.183.872.872,0,0,0,1.189.3A9.973,9.973,0,0,1,9.8,2.319,9.86,9.86,0,0,1,4.61,6.541c-.321.112-.652.209-.977.287A.863.863,0,1,0,4.044,8.5c.381-.09.765-.206,1.139-.331a11.615,11.615,0,0,0,6.613-5.9.861.861,0,0,0,.028-.665.737.737,0,0,0-.2-.321" transform="translate(75.597 25.61)" fill="#9198ff"/>
          <path id="路径_340" data-name="路径 340" d="M.559,39.713A3.2,3.2,0,0,1,0,37.9a3.143,3.143,0,0,1,.939-2.25,3.156,3.156,0,0,1,2.253-.939,3.2,3.2,0,0,1,1.8.555A3.2,3.2,0,0,1,.554,39.71M.554.55a3.2,3.2,0,0,1,5,2.643A3.167,3.167,0,0,1,5,5a3.2,3.2,0,0,1-1.8.552,3.153,3.153,0,0,1-2.261-.94A3.154,3.154,0,0,1,0,2.362,3.2,3.2,0,0,1,.559.552m39.151,0a3.18,3.18,0,0,1-.384,4.06,3.133,3.133,0,0,1-2.247.936A3.2,3.2,0,0,1,35.272,5,3.2,3.2,0,0,1,39.71.552m0,39.16a3.2,3.2,0,0,1-4.438-4.444,3.2,3.2,0,0,1,5,2.632,3.173,3.173,0,0,1-.559,1.81M3.723,36.542a1.462,1.462,0,0,0-1.994,1.367,1.425,1.425,0,0,0,.1.527,1.477,1.477,0,0,0,.537.1,1.45,1.45,0,0,0,1.034-.43,1.4,1.4,0,0,0,.428-1.036,1.44,1.44,0,0,0-.1-.527m0-32.823A1.464,1.464,0,0,0,2.367,1.728a1.543,1.543,0,0,0-.537.1,1.442,1.442,0,0,0-.1.531A1.479,1.479,0,0,0,2.159,3.4a1.454,1.454,0,0,0,1.033.421,1.394,1.394,0,0,0,.531-.1m32.816,0a1.43,1.43,0,0,0,.54.1A1.464,1.464,0,0,0,38.112,3.4a1.489,1.489,0,0,0,.428-1.042,1.511,1.511,0,0,0-.1-.531,1.535,1.535,0,0,0-.531-.1,1.436,1.436,0,0,0-1.036.431A1.457,1.457,0,0,0,36.442,3.2a1.475,1.475,0,0,0,.1.524m0,32.823a1.5,1.5,0,0,0-.1.527,1.466,1.466,0,0,0,2,1.367,1.454,1.454,0,0,0-1.361-1.991,1.491,1.491,0,0,0-.54.1" transform="translate(41.866 41.423)" fill="#9198ff"/>
          <path id="路径_341" data-name="路径 341" d="M27.652,1.061a.742.742,0,0,1,.022.184.864.864,0,0,1-.864.871H.861a.836.836,0,0,1-.6-.256A.847.847,0,0,1,0,1.245a.927.927,0,0,1,.022-.184A1.018,1.018,0,0,1,0,.871.84.84,0,0,1,.256.259.827.827,0,0,1,.861,0H26.809a.864.864,0,0,1,.864.871.81.81,0,0,1-.022.19" transform="translate(0.521 60.496)" fill="#9198ff"/>
          <path id="路径_342" data-name="路径 342" d="M1.061,27.655a1.021,1.021,0,0,1-.193.022A.869.869,0,0,1,0,26.812V.864A.874.874,0,0,1,.262.25.851.851,0,0,1,.868,0a.818.818,0,0,1,.193.022A.75.75,0,0,1,1.248,0a.847.847,0,0,1,.609.25.843.843,0,0,1,.256.615V26.812a.864.864,0,0,1-.864.864.93.93,0,0,1-.187-.022" transform="translate(60.939 0.078)" fill="#9198ff"/>
          <path id="路径_343" data-name="路径 343" d="M.022,1.061A.81.81,0,0,1,0,.871.872.872,0,0,1,.868,0H26.812a.851.851,0,0,1,.612.259.862.862,0,0,1,.253.612.811.811,0,0,1-.022.19.743.743,0,0,1,.022.184.87.87,0,0,1-.253.615.861.861,0,0,1-.612.256H.868A.872.872,0,0,1,0,1.245a.742.742,0,0,1,.022-.184" transform="translate(95.802 60.496)" fill="#9198ff"/>
          <path id="路径_344" data-name="路径 344" d="M1.061.019A.929.929,0,0,1,1.248,0a.866.866,0,0,1,.864.871V26.812a.858.858,0,0,1-.864.861.75.75,0,0,1-.187-.022.818.818,0,0,1-.193.022.861.861,0,0,1-.6-.247A.886.886,0,0,1,0,26.812V.871A.87.87,0,0,1,.868,0a1.015,1.015,0,0,1,.193.019" transform="translate(60.939 95.359)" fill="#9198ff"/>
        </g>
      </g>
    </g>
  </g>
</svg>
