<svg xmlns="http://www.w3.org/2000/svg" xmlns:xlink="http://www.w3.org/1999/xlink" width="124" height="124" viewBox="0 0 124 124">
  <defs>
    <clipPath id="clip-path">
      <rect id="矩形_843" data-name="矩形 843" width="65" height="124" transform="translate(0.1 0.223)" fill="#eee" stroke="#707070" stroke-width="1"/>
    </clipPath>
    <clipPath id="clip-path-2">
      <rect id="矩形_842" data-name="矩形 842" width="124" height="124" transform="translate(0.238 0.223)" fill="#eee"/>
    </clipPath>
  </defs>
  <g id="组_110" data-name="组 110" transform="translate(1607 -26)">
    <rect id="矩形_848" data-name="矩形 848" width="124" height="124" transform="translate(-1607 26)" fill="none"/>
    <g id="蒙版组_16" data-name="蒙版组 16" transform="translate(-1548.1 25.777)" clip-path="url(#clip-path)">
      <g id="组_106" data-name="组 106" transform="translate(2.862)">
        <g id="组_105" data-name="组 105" clip-path="url(#clip-path-2)">
          <path id="路径_3839" data-name="路径 3839" d="M20.484,2.512c-.237-.39-.487-.774-.752-1.142A.874.874,0,0,1,19.819.25a1.428,1.428,0,0,0,.112-.09A.912.912,0,0,1,20.484,0a.94.94,0,0,1,.555.159c.031.031.075.066.1.09a.864.864,0,0,1,.09,1.12c-.268.368-.515.752-.749,1.142" transform="translate(41.755 -0.202)" fill="#eee"/>
          <path id="路径_3840" data-name="路径 3840" d="M38.919,20.483q.585-.356,1.139-.752a.882.882,0,0,1,1.123.087c.028.037.059.072.087.112a1.033,1.033,0,0,1,0,1.1c-.028.041-.059.072-.087.109a.878.878,0,0,1-1.123.09c-.368-.265-.749-.518-1.139-.749" transform="translate(82.789 41.297)" fill="#eee"/>
          <path id="路径_3841" data-name="路径 3841" d="M20.484,38.919c.234.39.481.771.749,1.139a.867.867,0,0,1-.09,1.123,1.293,1.293,0,0,0-.1.087.921.921,0,0,1-.555.162.9.9,0,0,1-.552-.162,1.371,1.371,0,0,0-.112-.087.878.878,0,0,1-.087-1.123q.4-.552.752-1.139" transform="translate(41.755 82.33)" fill="#eee"/>
          <path id="路径_3842" data-name="路径 3842" d="M2.512,20.483c-.39.231-.774.484-1.139.749a.874.874,0,0,1-1.12-.09,1.357,1.357,0,0,0-.094-.109,1.034,1.034,0,0,1,0-1.1,1.371,1.371,0,0,0,.094-.112.877.877,0,0,1,1.12-.087c.365.265.749.515,1.139.752" transform="translate(0.257 41.297)" fill="#eee"/>
          <path id="路径_3843" data-name="路径 3843" d="M24.686,12.117c-.493.855-1.033,1.7-1.6,2.509a35.073,35.073,0,0,1-4.026,4.79.867.867,0,1,1-1.22-1.233h.006a33.193,33.193,0,0,0,3.826-4.547,34,34,0,0,0,3.014-5.252A34.781,34.781,0,0,0,27.7,13.637a32.936,32.936,0,0,0,3.82,4.547h.006a.864.864,0,0,1-1.211,1.233,34.415,34.415,0,0,1-4.026-4.79c-.571-.811-1.108-1.654-1.6-2.509" transform="translate(37.552 17.58)" fill="#eee"/>
          <path id="路径_3844" data-name="路径 3844" d="M35.27,24.685c-.852-.5-1.7-1.036-2.512-1.6a34.96,34.96,0,0,1-4.784-4.022.865.865,0,1,1,1.226-1.22v.009a33.7,33.7,0,0,0,4.556,3.82A34.043,34.043,0,0,0,39,24.685,33.77,33.77,0,0,0,33.757,27.7,33.043,33.043,0,0,0,29.2,31.522v.006A.866.866,0,1,1,27.974,30.3a35.184,35.184,0,0,1,4.784-4.022c.814-.565,1.66-1.1,2.512-1.6" transform="translate(59.051 37.095)" fill="#eee"/>
          <path id="路径_3845" data-name="路径 3845" d="M24.686,35.268c.5-.852,1.033-1.694,1.6-2.509a34.386,34.386,0,0,1,4.026-4.787A.864.864,0,0,1,31.527,29.2h-.006a32.6,32.6,0,0,0-3.82,4.55A34.723,34.723,0,0,0,24.686,39a33.942,33.942,0,0,0-3.014-5.246,32.853,32.853,0,0,0-3.826-4.55H17.84a.867.867,0,0,1,1.22-1.233,35.044,35.044,0,0,1,4.026,4.787c.568.814,1.108,1.657,1.6,2.509" transform="translate(37.552 58.592)" fill="#eee"/>
          <path id="路径_3846" data-name="路径 3846" d="M12.12,24.685c.849.5,1.691,1.033,2.506,1.6a35.054,35.054,0,0,1,4.79,4.022.875.875,0,0,1-.009,1.223.861.861,0,0,1-1.214,0l-.009-.006A33.14,33.14,0,0,0,13.637,27.7a34,34,0,0,0-5.252-3.015,34.277,34.277,0,0,0,5.252-3.018,33.8,33.8,0,0,0,4.547-3.82l.009-.009a.861.861,0,0,1,1.214,0,.871.871,0,0,1,.009,1.22,34.831,34.831,0,0,1-4.79,4.022c-.814.568-1.657,1.1-2.506,1.6" transform="translate(18.038 37.095)" fill="#eee"/>
          <path id="路径_3847" data-name="路径 3847" d="M23.166,2.128c-4.2,6.572-4.1,16.009,0,24.54,4.1-8.532,4.2-17.968,0-24.54m0,28.167A33.85,33.85,0,0,1,18.41,15.971,23.04,23.04,0,0,1,22.276.359.48.48,0,0,1,22.367.25a.87.87,0,0,1,.8-.228.866.866,0,0,1,.8.228c.041.037.059.069.1.109a23.053,23.053,0,0,1,3.857,15.612A33.926,33.926,0,0,1,23.174,30.3" transform="translate(39.073 -0.201)" fill="#eee"/>
          <path id="路径_3848" data-name="路径 3848" d="M58.182,23.164c-6.572-4.2-16.009-4.107-24.537,0,8.529,4.107,17.965,4.194,24.537,0m-28.167,0a33.858,33.858,0,0,1,14.327-4.753,23.025,23.025,0,0,1,15.609,3.863.727.727,0,0,1,.112.087.872.872,0,0,1,.225.8.87.87,0,0,1-.225.8.989.989,0,0,1-.112.087,23.044,23.044,0,0,1-15.609,3.866,33.944,33.944,0,0,1-14.327-4.753" transform="translate(63.907 38.617)" fill="#eee"/>
          <path id="路径_3849" data-name="路径 3849" d="M23.166,58.185c4.2-6.575,4.1-16.015,0-24.544-4.1,8.529-4.2,17.968,0,24.544m0-28.17a33.94,33.94,0,0,1,4.75,14.324,23.044,23.044,0,0,1-3.857,15.612,1.439,1.439,0,0,1-.1.112.864.864,0,0,1-.8.225.868.868,0,0,1-.8-.225.571.571,0,0,1-.091-.112A23.031,23.031,0,0,1,18.41,44.339a33.865,33.865,0,0,1,4.756-14.324" transform="translate(39.073 63.449)" fill="#eee"/>
          <path id="路径_3850" data-name="路径 3850" d="M2.128,23.164c6.575,4.194,16.015,4.107,24.54,0-8.525-4.107-17.965-4.2-24.54,0m28.173,0a33.984,33.984,0,0,1-14.333,4.753A23.052,23.052,0,0,1,.359,24.05a.928.928,0,0,1-.106-.087.866.866,0,0,1-.231-.8.867.867,0,0,1,.231-.8.685.685,0,0,1,.106-.087,23.034,23.034,0,0,1,15.609-3.863A33.9,33.9,0,0,1,30.3,23.164" transform="translate(0.257 38.617)" fill="#eee"/>
          <path id="路径_3851" data-name="路径 3851" d="M21.7,23.756l-.009-.006a20.682,20.682,0,0,1-3.177-1.017,20.7,20.7,0,0,1,3.177-1.024L21.7,21.7l.009-.012a20.524,20.524,0,0,1,1.024-3.18,21.968,21.968,0,0,1,1.027,3.18V21.7l.016.006a20.7,20.7,0,0,1,3.177,1.024,20.682,20.682,0,0,1-3.177,1.017l-.016.006v.016a22.092,22.092,0,0,1-1.027,3.18,20.632,20.632,0,0,1-1.024-3.18l-.009-.016" transform="translate(39.509 39.051)" fill="#eee"/>
          <path id="路径_3852" data-name="路径 3852" d="M28.718,31.052a19.236,19.236,0,0,0-11.955,9.384A.856.856,0,0,1,15.6,40.8a.877.877,0,0,1-.212-.153.868.868,0,0,1-.156-1.017A20.865,20.865,0,0,1,26.66,29.891a20.888,20.888,0,0,1-11.428-9.746.858.858,0,0,1,.156-1.011.692.692,0,0,1,.212-.156.853.853,0,0,1,1.161.362,19.2,19.2,0,0,0,11.955,9.381,19.133,19.133,0,0,0-9.381-11.952.867.867,0,0,1-.365-1.17,1.3,1.3,0,0,1,.156-.209.869.869,0,0,1,1.014-.15,20.839,20.839,0,0,1,9.746,11.425A20.846,20.846,0,0,1,39.63,15.237a.861.861,0,0,1,1.011.15.831.831,0,0,1,.156.209.868.868,0,0,1-.362,1.17,19.149,19.149,0,0,0-9.377,11.952,19.156,19.156,0,0,0,11.949-9.381.861.861,0,0,1,1.167-.362.644.644,0,0,1,.209.156.853.853,0,0,1,.153,1.011,20.854,20.854,0,0,1-11.421,9.746,20.831,20.831,0,0,1,11.421,9.739.863.863,0,0,1-.153,1.017.8.8,0,0,1-.209.153.864.864,0,0,1-1.167-.362,19.191,19.191,0,0,0-11.949-9.384,19.155,19.155,0,0,0,9.377,11.955.865.865,0,0,1,.362,1.167.831.831,0,0,1-.156.209.861.861,0,0,1-1.011.15,20.848,20.848,0,0,1-9.743-11.415,20.841,20.841,0,0,1-9.746,11.415.869.869,0,0,1-1.014-.15,1.3,1.3,0,0,1-.156-.209.863.863,0,0,1,.365-1.167,19.139,19.139,0,0,0,9.381-11.955" transform="translate(32.351 31.895)" fill="#eee"/>
          <path id="路径_3853" data-name="路径 3853" d="M7.1,34.592a5.41,5.41,0,0,1-1.538-4.353,5.205,5.205,0,0,1,3.607-4.69c2.837-.78,4.369.609,4.846,2.163a3.188,3.188,0,0,1-.93,3.32,2.477,2.477,0,0,1-1.869.524,2.211,2.211,0,0,1-1.5-.883,2.041,2.041,0,0,1-.359-1.592.867.867,0,0,1,1.7.337.26.26,0,0,0,.056.234.485.485,0,0,0,.3.187.932.932,0,0,0,.527-.091,1.489,1.489,0,0,0,.431-1.52c-.331-1.067-1.276-1.414-2.743-1.011a3.474,3.474,0,0,0-2.34,3.167,3.656,3.656,0,0,0,2.181,3.767c2.085.983,4.79.019,7.411-2.649,1.027-1.017,1.941-1.975,2.834-2.9,4.029-4.207,7.215-7.527,13.1-8.076a.864.864,0,0,1,.165,1.719c-5.258.493-7.948,3.3-12.024,7.555-.9.93-1.822,1.894-2.855,2.924-3.155,3.211-6.578,4.31-9.371,3A5.832,5.832,0,0,1,7.1,34.592" transform="translate(11.999 43.313)" fill="#eee"/>
          <path id="路径_3854" data-name="路径 3854" d="M34.59,51.8a5.381,5.381,0,0,1-4.344,1.545,5.184,5.184,0,0,1-4.693-3.6c-.783-2.843.6-4.372,2.159-4.853a3.2,3.2,0,0,1,3.317.933,2.477,2.477,0,0,1,.524,1.866,2.229,2.229,0,0,1-.883,1.5,2.051,2.051,0,0,1-1.592.359.866.866,0,0,1,.334-1.7.291.291,0,0,0,.237-.059.491.491,0,0,0,.187-.3.9.9,0,0,0-.09-.521,1.476,1.476,0,0,0-1.523-.431c-1.058.328-1.411,1.273-1.008,2.737a3.476,3.476,0,0,0,3.177,2.35,3.672,3.672,0,0,0,3.76-2.181c.98-2.091.012-4.8-2.646-7.418C30.483,41,29.522,40.084,28.6,39.2c-4.207-4.032-7.53-7.215-8.079-13.1a.862.862,0,1,1,1.716-.159c.493,5.249,3.3,7.939,7.555,12.021.942.9,1.9,1.819,2.927,2.852,3.211,3.161,4.306,6.581,3,9.371A5.607,5.607,0,0,1,34.59,51.8" transform="translate(43.769 53.117)" fill="#eee"/>
          <path id="路径_3855" data-name="路径 3855" d="M51.8,15.826a5.418,5.418,0,0,1,1.545,4.353,5.2,5.2,0,0,1-3.611,4.69c-2.84.783-4.372-.609-4.849-2.163a3.21,3.21,0,0,1,.93-3.32,2.474,2.474,0,0,1,1.869-.521,2.191,2.191,0,0,1,1.5.883,2,2,0,0,1,.362,1.588.863.863,0,0,1-1.694-.325.3.3,0,0,0-.056-.237.513.513,0,0,0-.309-.2.973.973,0,0,0-.518.094,1.479,1.479,0,0,0-.434,1.523c.331,1.061,1.276,1.407,2.74,1a3.466,3.466,0,0,0,2.347-3.167,3.671,3.671,0,0,0-2.181-3.767c-2.091-.983-4.787-.016-7.415,2.656-1.02,1.011-1.938,1.972-2.827,2.9-4.032,4.207-7.221,7.527-13.107,8.076a.862.862,0,1,1-.162-1.716c5.252-.493,7.945-3.3,12.017-7.555.9-.933,1.822-1.894,2.855-2.924,3.161-3.214,6.584-4.3,9.371-3A5.656,5.656,0,0,1,51.8,15.826" transform="translate(53.581 29.83)" fill="#eee"/>
          <path id="路径_3856" data-name="路径 3856" d="M15.831,7.1a5.4,5.4,0,0,1,4.347-1.542,5.172,5.172,0,0,1,4.687,3.614c.786,2.837-.6,4.366-2.156,4.846a3.21,3.21,0,0,1-3.323-.933,2.466,2.466,0,0,1-.521-1.872,2.189,2.189,0,0,1,.889-1.5,2.009,2.009,0,0,1,1.585-.359.863.863,0,1,1-.328,1.694.306.306,0,0,0-.237.059.519.519,0,0,0-.2.3,1.061,1.061,0,0,0,.094.524,1.482,1.482,0,0,0,1.526.431c1.058-.328,1.407-1.273,1.011-2.74a3.5,3.5,0,0,0-3.174-2.347,3.679,3.679,0,0,0-3.77,2.181c-.983,2.091-.009,4.8,2.653,7.415,1.014,1.03,1.975,1.947,2.9,2.837,4.21,4.029,7.533,7.212,8.082,13.1a.877.877,0,0,1-.786.946.865.865,0,0,1-.939-.786c-.487-5.246-3.3-7.939-7.555-12.017-.933-.9-1.9-1.822-2.927-2.855-3.208-3.161-4.3-6.572-2.993-9.371A5.674,5.674,0,0,1,15.831,7.1" transform="translate(30.287 11.538)" fill="#eee"/>
          <path id="路径_3857" data-name="路径 3857" d="M7.1,15.826a5.414,5.414,0,0,0-1.538,4.353,5.2,5.2,0,0,0,3.607,4.69c2.837.783,4.369-.609,4.846-2.163a3.192,3.192,0,0,0-.93-3.32,2.463,2.463,0,0,0-1.869-.521,2.211,2.211,0,0,0-1.5.883,2.034,2.034,0,0,0-.359,1.588.866.866,0,0,0,1.7-.325.257.257,0,0,1,.056-.237.489.489,0,0,1,.3-.2,1.015,1.015,0,0,1,.527.094,1.491,1.491,0,0,1,.431,1.523c-.331,1.061-1.276,1.407-2.743,1a3.474,3.474,0,0,1-2.34-3.167,3.658,3.658,0,0,1,2.181-3.767c2.085-.983,4.79-.016,7.411,2.656,1.027,1.011,1.941,1.972,2.834,2.9,4.029,4.207,7.215,7.527,13.1,8.076a.862.862,0,1,0,.165-1.716c-5.258-.493-7.948-3.3-12.024-7.555-.9-.933-1.822-1.894-2.855-2.924-3.155-3.214-6.578-4.3-9.371-3A5.759,5.759,0,0,0,7.1,15.826" transform="translate(11.999 29.83)" fill="#eee"/>
          <path id="路径_3858" data-name="路径 3858" d="M15.831,51.8a5.38,5.38,0,0,0,4.347,1.545,5.172,5.172,0,0,0,4.687-3.6c.786-2.843-.6-4.372-2.156-4.853a3.21,3.21,0,0,0-3.323.933,2.463,2.463,0,0,0-.521,1.866,2.2,2.2,0,0,0,.889,1.5,2.033,2.033,0,0,0,1.585.359.866.866,0,1,0-.328-1.7.282.282,0,0,1-.237-.059.51.51,0,0,1-.2-.3,1.046,1.046,0,0,1,.094-.521,1.476,1.476,0,0,1,1.526-.431c1.058.328,1.407,1.273,1.011,2.737a3.489,3.489,0,0,1-3.174,2.35,3.675,3.675,0,0,1-3.77-2.181c-.983-2.091-.009-4.8,2.653-7.418,1.014-1.03,1.975-1.944,2.9-2.834,4.21-4.032,7.533-7.215,8.082-13.1a.879.879,0,0,0-.786-.946.869.869,0,0,0-.939.786c-.487,5.249-3.3,7.939-7.555,12.021-.933.9-1.9,1.819-2.927,2.852-3.208,3.161-4.3,6.581-2.993,9.371a5.616,5.616,0,0,0,1.13,1.623" transform="translate(30.287 53.117)" fill="#eee"/>
          <path id="路径_3859" data-name="路径 3859" d="M51.8,34.592a5.414,5.414,0,0,0,1.545-4.353,5.2,5.2,0,0,0-3.611-4.69c-2.84-.78-4.372.609-4.849,2.163a3.206,3.206,0,0,0,.93,3.32,2.488,2.488,0,0,0,1.869.524,2.191,2.191,0,0,0,1.5-.883,2.006,2.006,0,0,0,.362-1.592.864.864,0,1,0-1.694.337.307.307,0,0,1-.056.234.509.509,0,0,1-.309.187.9.9,0,0,1-.518-.091,1.478,1.478,0,0,1-.434-1.52c.331-1.067,1.276-1.414,2.74-1.011a3.466,3.466,0,0,1,2.347,3.167,3.668,3.668,0,0,1-2.181,3.767c-2.091.983-4.787.019-7.415-2.649C41,30.485,40.085,29.527,39.2,28.6c-4.032-4.207-7.221-7.527-13.107-8.076a.864.864,0,0,0-.162,1.719c5.252.493,7.945,3.3,12.017,7.555.9.93,1.822,1.894,2.855,2.924,3.161,3.211,6.584,4.31,9.371,3a5.727,5.727,0,0,0,1.626-1.13" transform="translate(53.581 43.313)" fill="#eee"/>
          <path id="路径_3860" data-name="路径 3860" d="M34.59,7.1a5.4,5.4,0,0,0-4.344-1.542,5.184,5.184,0,0,0-4.693,3.614c-.783,2.837.6,4.366,2.159,4.846a3.2,3.2,0,0,0,3.317-.933,2.48,2.48,0,0,0,.524-1.872,2.216,2.216,0,0,0-.883-1.5,2.026,2.026,0,0,0-1.592-.359.864.864,0,0,0,.334,1.694.318.318,0,0,1,.237.059.5.5,0,0,1,.187.3.913.913,0,0,1-.09.524,1.482,1.482,0,0,1-1.523.431c-1.058-.328-1.411-1.273-1.008-2.74a3.486,3.486,0,0,1,3.177-2.347,3.676,3.676,0,0,1,3.76,2.181c.98,2.091.012,4.8-2.646,7.415-1.024,1.03-1.985,1.947-2.905,2.837-4.207,4.029-7.53,7.212-8.079,13.1a.872.872,0,0,0,.78.946.862.862,0,0,0,.936-.786c.493-5.246,3.3-7.939,7.555-12.017.942-.9,1.9-1.822,2.927-2.855,3.211-3.161,4.306-6.572,3-9.371A5.665,5.665,0,0,0,34.59,7.1" transform="translate(43.769 11.538)" fill="#eee"/>
          <path id="路径_3861" data-name="路径 3861" d="M32.575,47.013a12.026,12.026,0,0,0-2.8-2.085,12.528,12.528,0,0,0-11.652-.006A10.583,10.583,0,0,0,12.3,53.1a12.235,12.235,0,0,0,3.526,10.41c.05.044.09.084.137.122a1.084,1.084,0,0,1,.119.137A12.276,12.276,0,0,0,26.5,67.291a10.575,10.575,0,0,0,8.17-5.826,12.507,12.507,0,0,0,0-11.655,12.039,12.039,0,0,0-2.088-2.8m14.442,0a11.755,11.755,0,0,0-2.081,2.8,12.516,12.516,0,0,0-.012,11.655A10.585,10.585,0,0,0,53.1,67.291a12.263,12.263,0,0,0,10.407-3.526c.047-.05.084-.087.128-.137s.084-.078.128-.122A12.216,12.216,0,0,0,67.288,53.1a10.569,10.569,0,0,0-5.826-8.173,12.515,12.515,0,0,0-11.646.006,12.043,12.043,0,0,0-2.8,2.085m0-14.439a11.955,11.955,0,0,0,2.8,2.085,12.5,12.5,0,0,0,11.646.006,10.564,10.564,0,0,0,5.826-8.17,12.226,12.226,0,0,0-3.526-10.413c-.044-.041-.087-.084-.128-.119s-.081-.094-.128-.14A12.252,12.252,0,0,0,53.1,12.3a10.578,10.578,0,0,0-8.176,5.826,12.509,12.509,0,0,0,.012,11.652,11.755,11.755,0,0,0,2.081,2.8m-14.442,0a12.039,12.039,0,0,0,2.088-2.8,12.5,12.5,0,0,0,0-11.652A10.568,10.568,0,0,0,26.5,12.3a12.264,12.264,0,0,0-10.413,3.523c-.044.047-.078.09-.119.14-.047.034-.087.078-.137.119A12.245,12.245,0,0,0,12.3,26.5a10.578,10.578,0,0,0,5.826,8.17,12.51,12.51,0,0,0,11.652-.006,11.938,11.938,0,0,0,2.8-2.085M27.2,52.4a5.618,5.618,0,0,0-5.118-.409,4.139,4.139,0,0,0-2.191,4.843A3.275,3.275,0,0,0,21,58.587a3.323,3.323,0,0,0,1.754,1.12,4.161,4.161,0,0,0,4.856-2.2,5.645,5.645,0,0,0-.418-5.115m25.2,0a5.6,5.6,0,0,0-.409,5.115,4.146,4.146,0,0,0,4.849,2.2,3.329,3.329,0,0,0,1.757-1.12,3.275,3.275,0,0,0,1.111-1.76,4.129,4.129,0,0,0-2.191-4.843,5.618,5.618,0,0,0-5.118.409m0-25.2a5.609,5.609,0,0,0,5.118.412A4.129,4.129,0,0,0,59.7,22.76a3.237,3.237,0,0,0-1.111-1.751,3.261,3.261,0,0,0-1.757-1.123,4.133,4.133,0,0,0-4.849,2.191,5.6,5.6,0,0,0,.409,5.115m-25.2,0a5.642,5.642,0,0,0,.418-5.115,4.148,4.148,0,0,0-4.856-2.191A3.255,3.255,0,0,0,21,21.009a3.237,3.237,0,0,0-1.117,1.751,4.139,4.139,0,0,0,2.194,4.84,5.61,5.61,0,0,0,5.118-.412M19.774,59.817a4.81,4.81,0,0,1-1.557-2.553,5.866,5.866,0,0,1,3.146-6.856,7.454,7.454,0,0,1,7.084.736,7.446,7.446,0,0,1,.736,7.081,5.874,5.874,0,0,1-6.859,3.146,4.832,4.832,0,0,1-2.55-1.554m40.044,0a4.805,4.805,0,0,1-2.553,1.554,5.858,5.858,0,0,1-6.85-3.146,7.435,7.435,0,0,1,.727-7.081,7.454,7.454,0,0,1,7.084-.736,5.866,5.866,0,0,1,3.146,6.856,4.825,4.825,0,0,1-1.554,2.553m0-40.04a4.819,4.819,0,0,1,1.554,2.546,5.868,5.868,0,0,1-3.146,6.856,7.462,7.462,0,0,1-7.084-.733,7.437,7.437,0,0,1-.727-7.081,5.858,5.858,0,0,1,6.85-3.152,4.8,4.8,0,0,1,2.553,1.563m-40.044,0a4.826,4.826,0,0,1,2.55-1.563,5.874,5.874,0,0,1,6.859,3.152,7.448,7.448,0,0,1-.736,7.081,7.462,7.462,0,0,1-7.084.733,5.868,5.868,0,0,1-3.146-6.856,4.8,4.8,0,0,1,1.557-2.546M14.737,64.854l-.078-.075a4.022,4.022,0,0,1-.331-.321,14.04,14.04,0,0,1-3.738-11.6,12.255,12.255,0,0,1,6.744-9.471A14.247,14.247,0,0,1,30.6,43.4a13.655,13.655,0,0,1,3.2,2.39,13.874,13.874,0,0,1,2.39,3.2,14.265,14.265,0,0,1,.01,13.264A12.24,12.24,0,0,1,26.73,69a14.053,14.053,0,0,1-11.6-3.732c-.115-.112-.218-.225-.318-.328a1,1,0,0,1-.078-.084m50.12,0c-.031.028-.053.059-.078.084-.1.1-.209.215-.318.328A14.07,14.07,0,0,1,52.858,69a12.26,12.26,0,0,1-9.471-6.744,14.256,14.256,0,0,1,.022-13.263A13.8,13.8,0,0,1,49,43.4a14.234,14.234,0,0,1,13.256-.016A12.262,12.262,0,0,1,69,52.858a14.091,14.091,0,0,1-3.738,11.6c-.112.115-.215.218-.328.321a.884.884,0,0,0-.081.075m0-50.123a.469.469,0,0,0,.081.078c.112.106.215.209.328.318A14.1,14.1,0,0,1,69,26.729,12.257,12.257,0,0,1,62.25,36.2,14.261,14.261,0,0,1,49,36.188,13.848,13.848,0,0,1,43.409,30.6a14.262,14.262,0,0,1-.022-13.266,12.253,12.253,0,0,1,9.471-6.744,14.043,14.043,0,0,1,11.6,3.738c.109.1.215.215.318.325.025.022.047.05.078.078m-50.12,0a.614.614,0,0,1,.078-.078,4.444,4.444,0,0,1,.318-.325,14.027,14.027,0,0,1,11.6-3.738,12.233,12.233,0,0,1,9.47,6.743A14.271,14.271,0,0,1,36.185,30.6,14,14,0,0,1,30.6,36.188a14.274,14.274,0,0,1-13.263.012,12.25,12.25,0,0,1-6.744-9.471,14.047,14.047,0,0,1,3.738-11.6c.1-.109.215-.212.331-.318a.912.912,0,0,0,.078-.078" transform="translate(22.443 21.985)" fill="#eee"/>
          <path id="路径_3862" data-name="路径 3862" d="M9.628,35.845a1.15,1.15,0,0,1-.175-.243A11.674,11.674,0,0,1,10,24.642a.857.857,0,0,1,1.183-.3.867.867,0,0,1,.3,1.186,10.177,10.177,0,0,0-.846,1.8,9.873,9.873,0,0,0,.031,6.691,9.882,9.882,0,0,0,4.213-5.2c.112-.315.206-.64.293-.967a.858.858,0,0,1,1.039-.64.869.869,0,0,1,.633,1.052,10.653,10.653,0,0,1-.334,1.133,11.581,11.581,0,0,1-5.9,6.616.877.877,0,0,1-.658.034.815.815,0,0,1-.328-.2" transform="translate(17.95 51.159)" fill="#eee"/>
          <path id="路径_3863" data-name="路径 3863" d="M35.843,35.89a.981.981,0,0,1-.24.178,11.622,11.622,0,0,1-8.856.443,12.253,12.253,0,0,1-2.106-.992.864.864,0,0,1,.889-1.482,10.24,10.24,0,0,0,1.794.843,9.957,9.957,0,0,0,6.694-.022,9.875,9.875,0,0,0-5.19-4.222c-.321-.109-.652-.206-.977-.287a.863.863,0,1,1,.412-1.676c.381.09.765.209,1.139.331a11.626,11.626,0,0,1,6.613,5.9.868.868,0,0,1,.028.668.746.746,0,0,1-.2.318" transform="translate(51.616 60.547)" fill="#eee"/>
          <path id="路径_3864" data-name="路径 3864" d="M35.893,11.948a.9.9,0,0,1,.172.247,11.606,11.606,0,0,1,.446,8.85,12.413,12.413,0,0,1-.986,2.113.879.879,0,0,1-1.192.3.869.869,0,0,1-.3-1.183,9.948,9.948,0,0,0,.846-1.807,9.846,9.846,0,0,0-.022-6.687,9.864,9.864,0,0,0-4.219,5.2,9.314,9.314,0,0,0-.287.967.864.864,0,0,1-1.679-.412,10.361,10.361,0,0,1,.34-1.13A11.572,11.572,0,0,1,34.9,11.782a.9.9,0,0,1,.668-.034.885.885,0,0,1,.321.2" transform="translate(61.006 24.609)" fill="#eee"/>
          <path id="路径_3865" data-name="路径 3865" d="M11.949,9.629a1.049,1.049,0,0,1,.25-.175A11.717,11.717,0,0,1,23.155,10a.863.863,0,0,1-.883,1.482,10.022,10.022,0,0,0-8.494-.824,9.863,9.863,0,0,0,5.2,4.222c.325.112.649.209.967.287a.875.875,0,0,1,.643,1.045.856.856,0,0,1-1.045.63c-.387-.09-.765-.206-1.142-.331a11.606,11.606,0,0,1-6.613-5.9.862.862,0,0,1-.034-.665.8.8,0,0,1,.2-.321" transform="translate(25.065 17.491)" fill="#eee"/>
          <path id="路径_3866" data-name="路径 3866" d="M9.628,11.948a1.171,1.171,0,0,0-.175.247,11.62,11.62,0,0,0-.44,8.85A11.966,11.966,0,0,0,10,23.157a.864.864,0,0,0,1.482-.886,10.162,10.162,0,0,1-.846-1.807,9.864,9.864,0,0,1,.031-6.687,9.882,9.882,0,0,1,4.213,5.2c.112.315.206.64.293.967a.86.86,0,0,0,1.039.64.87.87,0,0,0,.633-1.052,11.047,11.047,0,0,0-.334-1.13,11.577,11.577,0,0,0-5.9-6.619.877.877,0,0,0-.658-.034.815.815,0,0,0-.328.2" transform="translate(17.95 24.609)" fill="#eee"/>
          <path id="路径_3867" data-name="路径 3867" d="M11.949,35.89a.976.976,0,0,0,.25.178,11.605,11.605,0,0,0,8.85.443,12.144,12.144,0,0,0,2.106-.992.863.863,0,0,0-.883-1.482,10.224,10.224,0,0,1-1.8.843,9.948,9.948,0,0,1-6.691-.022,9.877,9.877,0,0,1,5.2-4.222c.325-.109.649-.206.967-.287a.861.861,0,1,0-.4-1.675c-.387.09-.765.209-1.142.331a11.617,11.617,0,0,0-6.613,5.9.869.869,0,0,0-.034.668.81.81,0,0,0,.2.318" transform="translate(25.065 60.547)" fill="#eee"/>
          <path id="路径_3868" data-name="路径 3868" d="M35.893,35.845a.883.883,0,0,0,.172-.243,11.623,11.623,0,0,0,.446-8.856,12.1,12.1,0,0,0-.986-2.1.868.868,0,0,0-1.492.886,9.961,9.961,0,0,1,.846,1.8,9.855,9.855,0,0,1-.022,6.691,9.864,9.864,0,0,1-4.219-5.2,9.314,9.314,0,0,1-.287-.967.864.864,0,1,0-1.679.412,10.011,10.011,0,0,0,.34,1.133A11.576,11.576,0,0,0,34.9,36.01a.9.9,0,0,0,.668.034.885.885,0,0,0,.321-.2" transform="translate(61.006 51.159)" fill="#eee"/>
          <path id="路径_3869" data-name="路径 3869" d="M35.843,9.629a1.056,1.056,0,0,0-.24-.175,11.607,11.607,0,0,0-8.856-.437A11.778,11.778,0,0,0,24.64,10a.863.863,0,0,0-.3,1.183.872.872,0,0,0,1.189.3,9.973,9.973,0,0,1,8.488-.824,9.86,9.86,0,0,1-5.19,4.222c-.321.112-.652.209-.977.287a.863.863,0,1,0,.412,1.676c.381-.09.765-.206,1.139-.331a11.615,11.615,0,0,0,6.613-5.9.861.861,0,0,0,.028-.665.737.737,0,0,0-.2-.321" transform="translate(51.616 17.491)" fill="#eee"/>
          <path id="路径_3870" data-name="路径 3870" d="M13.969,53.123A3.192,3.192,0,0,1,18.4,48.679a3.2,3.2,0,0,1-4.437,4.444m0-39.16A3.195,3.195,0,0,1,18.4,18.407a3.194,3.194,0,0,1-4.433-4.444m39.151,0a3.18,3.18,0,0,1-.384,4.06,3.133,3.133,0,0,1-2.247.936,3.2,3.2,0,0,1-1.807-.552,3.2,3.2,0,0,1,4.437-4.448m0,39.16a3.2,3.2,0,0,1-4.438-4.444,3.2,3.2,0,0,1,5,2.634,3.173,3.173,0,0,1-.559,1.81M17.133,49.952a1.462,1.462,0,0,0-1.994,1.367,1.425,1.425,0,0,0,.1.527,1.477,1.477,0,0,0,.537.1,1.45,1.45,0,0,0,1.033-.431,1.4,1.4,0,0,0,.428-1.036,1.44,1.44,0,0,0-.1-.527m0-32.823a1.464,1.464,0,0,0-1.361-1.991,1.543,1.543,0,0,0-.537.1,1.442,1.442,0,0,0-.1.531,1.479,1.479,0,0,0,.431,1.042,1.454,1.454,0,0,0,1.033.421,1.394,1.394,0,0,0,.531-.1m32.816,0a1.43,1.43,0,0,0,.54.1,1.464,1.464,0,0,0,1.033-.421,1.489,1.489,0,0,0,.428-1.042,1.511,1.511,0,0,0-.1-.531,1.535,1.535,0,0,0-.531-.1,1.436,1.436,0,0,0-1.036.431,1.457,1.457,0,0,0-.431,1.036,1.475,1.475,0,0,0,.1.524m0,32.823a1.5,1.5,0,0,0-.1.527,1.466,1.466,0,0,0,2,1.367,1.454,1.454,0,0,0-1.361-1.991,1.491,1.491,0,0,0-.54.1" transform="translate(28.694 28.236)" fill="#eee"/>
          <path id="路径_3871" data-name="路径 3871" d="M27.813,20.583a.742.742,0,0,1,.022.184.864.864,0,0,1-.864.871H1.022a.836.836,0,0,1-.6-.256.847.847,0,0,1-.256-.615.927.927,0,0,1,.022-.184,1.018,1.018,0,0,1-.022-.19.84.84,0,0,1,.256-.612.827.827,0,0,1,.6-.259H26.97a.864.864,0,0,1,.864.871.81.81,0,0,1-.022.19" transform="translate(0.598 41.197)" fill="#eee"/>
          <path id="路径_3872" data-name="路径 3872" d="M20.583,27.816a1.021,1.021,0,0,1-.193.022.869.869,0,0,1-.868-.864V1.025A.874.874,0,0,1,19.784.41a.851.851,0,0,1,.6-.25.818.818,0,0,1,.193.022A.75.75,0,0,1,20.77.161a.863.863,0,0,1,.864.864V26.973a.864.864,0,0,1-.864.864.93.93,0,0,1-.187-.022" transform="translate(41.655 0.14)" fill="#eee"/>
          <path id="路径_3873" data-name="路径 3873" d="M30.716,20.583a.81.81,0,0,1-.022-.19.872.872,0,0,1,.868-.871H57.506a.851.851,0,0,1,.612.259.862.862,0,0,1,.253.612.811.811,0,0,1-.022.19.743.743,0,0,1,.022.184.87.87,0,0,1-.253.615.861.861,0,0,1-.612.256H31.562a.872.872,0,0,1-.868-.871.742.742,0,0,1,.022-.184" transform="translate(65.347 41.197)" fill="#eee"/>
          <path id="路径_3874" data-name="路径 3874" d="M20.583,30.713a.929.929,0,0,1,.187-.019.866.866,0,0,1,.864.871V57.506a.858.858,0,0,1-.864.861.75.75,0,0,1-.187-.022.818.818,0,0,1-.193.022.861.861,0,0,1-.6-.247.886.886,0,0,1-.262-.615V31.565a.87.87,0,0,1,.868-.871,1.015,1.015,0,0,1,.193.019" transform="translate(41.655 64.889)" fill="#eee"/>
        </g>
      </g>
    </g>
  </g>
</svg>
