<svg xmlns="http://www.w3.org/2000/svg" xmlns:xlink="http://www.w3.org/1999/xlink" width="221.435" height="291.458" viewBox="0 0 221.435 291.458">
  <defs>
    <clipPath id="clip-path">
      <rect id="矩形_818" data-name="矩形 818" width="221.435" height="291.457" fill="none"/>
    </clipPath>
  </defs>
  <g id="组_82" data-name="组 82" style="mix-blend-mode: screen;isolation: isolate">
    <path id="路径_3623" data-name="路径 3623" d="M140,165.218V310.733l110.717-73.065V92.153Z" transform="translate(-29.283 -19.275)" fill="#191b36"/>
    <g id="组_81" data-name="组 81">
      <g id="组_80" data-name="组 80" clip-path="url(#clip-path)">
        <path id="路径_3624" data-name="路径 3624" d="M197.666,150.915c25.755-17,46.633-3.334,46.633,30.515S223.422,256.5,197.666,273.5s-46.633,3.334-46.633-30.515S171.911,167.912,197.666,150.915Z" transform="translate(-31.59 -30.037)" fill="none" stroke="#8588bb" stroke-width="1"/>
        <path id="路径_3625" data-name="路径 3625" d="M200.213,167.314c20.438-13.488,37.006-2.645,37.006,24.215s-16.568,59.57-37.006,73.058-37.006,2.645-37.006-24.215S179.775,180.8,200.213,167.314Z" transform="translate(-34.137 -33.783)" fill="none" stroke="#8588bb" stroke-width="1"/>
        <path id="路径_3626" data-name="路径 3626" d="M201.788,230.2a25.333,25.333,0,0,1,.71-7.095,38.6,38.6,0,0,1,2.094-6.282q1.242-2.824,3.374-6.845a85.14,85.14,0,0,0,3.8-8.013,17.367,17.367,0,0,0,1.243-6.418q0-3.452-1.988-4.569t-5.539,1.23a18.447,18.447,0,0,0-5.609,6.221,34.556,34.556,0,0,0-3.692,9.343l-7.029.159a52.248,52.248,0,0,1,6.461-15.136,35.272,35.272,0,0,1,10.3-10.76q4.616-3.046,8.094-3.055a6,6,0,0,1,5.291,2.621,12.74,12.74,0,0,1,1.81,7.3,32.485,32.485,0,0,1-.958,8.051,38.128,38.128,0,0,1-2.308,6.656q-1.35,2.9-3.55,7.055a78.659,78.659,0,0,0-3.8,7.733,19.063,19.063,0,0,0-1.385,6.421l-.212,6.765-6.817,4.5Zm8.307,22.513-9.231,6.092V246.677l9.231-6.092Z" transform="translate(-39.563 -37.436)" fill="#8588bb"/>
        <path id="路径_3627" data-name="路径 3627" d="M0,92.292l110.717,72.955V310.761L0,237.806Z" transform="translate(0 -19.304)" fill="#242747"/>
        <path id="路径_3628" data-name="路径 3628" d="M57.666,150.99C83.422,167.96,104.3,209.158,104.3,243.008S83.422,290.541,57.666,273.57,11.033,215.4,11.033,181.552,31.911,134.019,57.666,150.99Z" transform="translate(-2.308 -30.057)" fill="none" stroke="#8588bb" stroke-width="1"/>
        <path id="路径_3629" data-name="路径 3629" d="M60.213,167.388c20.438,13.467,37.007,46.16,37.007,73.021S80.65,278.128,60.213,264.661,23.206,218.5,23.206,191.64,39.775,153.921,60.213,167.388Z" transform="translate(-4.854 -33.802)" fill="none" stroke="#8588bb" stroke-width="1"/>
        <path id="路径_3630" data-name="路径 3630" d="M61.789,225.284a16.519,16.519,0,0,1,.711-6.157,9.137,9.137,0,0,1,2.094-3.52,17.174,17.174,0,0,1,3.373-2.4,13.978,13.978,0,0,0,3.8-3,7.49,7.49,0,0,0,1.243-4.781,15.319,15.319,0,0,0-1.988-7.189,16.4,16.4,0,0,0-5.538-6.074q-3.195-2.107-5.609-1.177t-3.693,4.472l-7.028-9.111q2.129-5.5,6.462-6.614t10.294,2.819A32.765,32.765,0,0,1,74,190.172a36.118,36.118,0,0,1,5.291,9.6,28.509,28.509,0,0,1,1.81,9.685,19.441,19.441,0,0,1-.959,6.788,8.61,8.61,0,0,1-2.308,3.612,25.312,25.312,0,0,1-3.549,2.372,12.666,12.666,0,0,0-3.8,2.724,7.427,7.427,0,0,0-1.385,4.593l-.212,6.486-6.817-4.491Zm8.308,33.47-9.23-6.082V240.541l9.23,6.082Z" transform="translate(-10.28 -37.542)" fill="#8588bb"/>
        <path id="路径_3631" data-name="路径 3631" d="M110.717,0,0,72.972l110.717,72.971L221.435,72.972Z" transform="translate(0 0)" fill="#2f3351"/>
        <path id="路径_3632" data-name="路径 3632" d="M168.786,50.17c-12.774-8.419-29.554-12.629-46.333-12.629S88.894,41.75,76.12,50.17c-25.548,16.838-25.548,44.236,0,61.074s67.119,16.838,92.666,0,25.548-44.236,0-61.074M159.76,105.3c-9.965,6.568-23.214,10.184-37.307,10.184S95.112,111.863,85.147,105.3s-15.454-15.3-15.454-24.589,5.488-18.02,15.454-24.588,23.214-10.184,37.306-10.184S149.8,49.551,159.76,56.118s15.453,15.3,15.453,24.588S169.725,98.727,159.76,105.3m-.6-48.78c-9.8-6.462-22.839-10.021-36.705-10.021s-26.9,3.559-36.7,10.021-15.2,15.053-15.2,24.191,5.4,17.73,15.2,24.192,22.839,10.021,36.7,10.021,26.9-3.559,36.705-10.021,15.2-15.053,15.2-24.192-5.4-17.729-15.2-24.191M99.476,101.724l-9.229-6.083,9.229-6.084,9.231,6.084Zm58.685-26.557a11.108,11.108,0,0,1-4.651,5.452,23.573,23.573,0,0,1-6.6,3.088,27.219,27.219,0,0,1-6.214,1.053q-2.877.117-7.136.024a57.279,57.279,0,0,0-7.774.117,13.64,13.64,0,0,0-5.575,1.848l-5.254,3.182-6.816-4.493,4.331-3.229a18.5,18.5,0,0,1,5.751-2.855,27.608,27.608,0,0,1,5.823-1.076q2.766-.186,6.886-.093a61.948,61.948,0,0,0,7.989-.257,12.488,12.488,0,0,0,5.5-1.988,4.689,4.689,0,0,0,2.486-4.259q-.144-2.527-3.693-4.867a15.554,15.554,0,0,0-7.526-2.434,24.939,24.939,0,0,0-8.948,1.03l-3.62-6.879a37.9,37.9,0,0,1,14.734-1.193,30.284,30.284,0,0,1,13.313,4.8,17.807,17.807,0,0,1,6.354,6.481,8.093,8.093,0,0,1,.64,6.551m-35.708,49.266c-17,0-33.995-4.264-46.935-12.793-25.879-17.057-25.879-44.811,0-61.867s67.989-17.056,93.869,0,25.879,44.811,0,61.867c-12.94,8.528-29.938,12.793-46.935,12.793" transform="translate(-11.736 -7.735)" fill="#8588bb"/>
      </g>
    </g>
  </g>
</svg>
