<svg xmlns="http://www.w3.org/2000/svg" width="16.352" height="31.885" viewBox="0 0 16.352 31.885">
  <g id="组_25" data-name="组 25" transform="translate(-1450.601 -46.057)">
    <path id="路径_210" data-name="路径 210" d="M31.385,31.885a.481.481,0,0,1-.107-.012,22.6,22.6,0,0,1-10.114-5.6,22.6,22.6,0,0,1-5.6-10.113A.5.5,0,0,1,15.7,15.7a.5.5,0,0,1,.46-.135,22.6,22.6,0,0,1,10.114,5.6,22.647,22.647,0,0,1,5.567,9.976.5.5,0,0,1,.064.245.54.54,0,0,1-.51.5Zm-14.62-15.12a21.854,21.854,0,0,0,5.106,8.8,21.842,21.842,0,0,0,8.8,5.106,21.849,21.849,0,0,0-5.105-8.8,21.857,21.857,0,0,0-8.8-5.106" transform="translate(1435.048 46.058)" fill="#fff"/>
    <path id="路径_211" data-name="路径 211" d="M31.384,31.884a.5.5,0,0,1-.354-.146L15.7,16.405a.5.5,0,0,1,.707-.707L31.738,31.03a.5.5,0,0,1-.354.854" transform="translate(1435.048 46.058)" fill="#fff"/>
    <path id="路径_212" data-name="路径 212" d="M16.053,16.331a.5.5,0,0,1-.488-.607,22.6,22.6,0,0,1,5.6-10.114A22.622,22.622,0,0,1,31.277.011a.5.5,0,0,1,.6.6,22.622,22.622,0,0,1-5.6,10.113,22.6,22.6,0,0,1-10.114,5.6.488.488,0,0,1-.107.012M30.672,1.212a21.862,21.862,0,0,0-8.8,5.1,21.844,21.844,0,0,0-5.106,8.8,21.857,21.857,0,0,0,8.8-5.106,21.862,21.862,0,0,0,5.105-8.8" transform="translate(1435.048 46.058)" fill="#fff"/>
    <path id="路径_213" data-name="路径 213" d="M16.053,16.332a.5.5,0,0,1-.354-.854L31.031.147a.5.5,0,0,1,.707.707L16.407,16.186a.5.5,0,0,1-.354.146" transform="translate(1435.048 46.058)" fill="#fff"/>
    <path id="路径_217" data-name="路径 217" d="M25.455,19.217a.5.5,0,0,1-.353-.146l-2.886-2.885a.5.5,0,0,1,0-.708L25.1,12.594a.5.5,0,0,1,.707,0l2.885,2.884a.5.5,0,0,1,0,.708l-2.885,2.885a.5.5,0,0,1-.354.146m-2.178-3.385,2.178,2.178,2.178-2.178-2.178-2.178Z" transform="translate(1435.048 46.058)" fill="#fff"/>
  </g>
</svg>
