<svg xmlns="http://www.w3.org/2000/svg" viewBox="0 0 200 200"><rect width="200" height="40" style="fill:#4758a9"/><rect y="160" width="200" height="40" style="fill:#4758a9"/><rect y="40" width="200" height="120" style="fill:#ed5565"/><path d="M156,115.48V103.81l3.57-3.21V88.1H153c0-15.12-9.41-21-9.41-21s-9.4,5.84-9.4,21h-5.6v3.57h-11.9V82.14h-4c.12-21.78-12.62-32-12.62-32S87.26,60.24,87.26,83.33H82.14v8.34H71.43V88.1H65.71c0-15.12-9.4-21-9.4-21S46.9,73,46.9,88.1H40.48v12.5l3.57,3.21v11.67L21.43,138v9.64H178.57V138Z" style="fill:#fff"/></svg>