<svg xmlns="http://www.w3.org/2000/svg" xmlns:xlink="http://www.w3.org/1999/xlink" width="93.5" height="73.126" viewBox="0 0 93.5 73.126">
  <defs>
    <clipPath id="clip-path">
      <rect id="矩形_6" data-name="矩形 6" width="93.5" height="73.126" fill="#fff"/>
    </clipPath>
  </defs>
  <g id="组_11" data-name="组 11" transform="translate(0 0)">
    <g id="组_4" data-name="组 4" transform="translate(0 0)" clip-path="url(#clip-path)">
      <path id="路径_18" data-name="路径 18" d="M87.35.852a6.154,6.154,0,0,0-2.882,11.594L72.91,26.914,68.272,14.767a3.914,3.914,0,0,0,2.9-3.662,3.936,3.936,0,0,0-7.868-.259,3.919,3.919,0,0,0,1.845,3.464l-8.223,10.8L49.257,11.828a6.159,6.159,0,1,0-4.883-.035L36.9,24.721l-8.357-11.1a3.933,3.933,0,1,0-4.926-6.047,3.861,3.861,0,0,0-1.072,2.811,3.955,3.955,0,0,0,2.864,3.677l-4.9,12.634L9.11,12.4a6.154,6.154,0,1,0-3.936.678l3.19,18.07-.064.082c-.323.366-.5.987-.412,2.892a5.321,5.321,0,0,0-1.75,2.463,10.418,10.418,0,0,0-.366,5.305c.578,3.389,2.363,5.937,4.578,6.6.408,1.306.827,2.193,1.519,2.445l.9,5.128.05,8.8a5.04,5.04,0,0,0-1.448,3.677c0,2.566,1.6,4.578,3.645,4.578H78.6c2.041,0,3.638-2.012,3.638-4.578A5.093,5.093,0,0,0,80.8,64.893V56.255l.987-5.554a4.77,4.77,0,0,0,1.082-2.207c2.222-.66,4-3.212,4.589-6.6a10.34,10.34,0,0,0-.369-5.305,5.333,5.333,0,0,0-1.753-2.463,6.422,6.422,0,0,0-.177-2.484l3.286-18.574A6.155,6.155,0,0,0,87.35.852M71.089,25.7l.9,2.374-1.4,1.757Zm-1.938-5.068.979,2.573c0,.021-.028.032-.032.06l-1.015,8.457L67.7,33.447ZM66.21,35.318l-1.416,1.771,2.257-21.956,1.175,3.08c-.035.071-.1.124-.106.209ZM64.57,10.884a2.68,2.68,0,0,1,2.75-2.562,2.585,2.585,0,0,1,1.849.834,2.626,2.626,0,0,1,.724,1.906,2.655,2.655,0,0,1-2.523,2.569.637.637,0,0,0-.387.174.641.641,0,0,0-.412-.224c-.046,0-.064.032-.1.032-.06-.039-.075-.114-.131-.138a2.639,2.639,0,0,1-1.767-2.591m1.146,4.777L63.562,36.606l-1.274-2.214,1.888-16.669-.014-.021Zm-4.635,6.086,1.59-2.09L61.217,32.542,60.1,30.608Zm-1.5,1.966-.557,5.036L57.615,26.3ZM42.841,6.21a4.012,4.012,0,1,1,4.007,4.014A4.013,4.013,0,0,1,42.841,6.21m-6.65,19.674.035.014-1.643,2.853-.66-5.88Zm-3.737-4.958c0,.025-.018.043-.018.071L33.5,30.615l-1.118,1.931-1.558-13.78Zm-3.034-4.035c-.014.075-.064.131-.057.2L31.315,34.4,30.037,36.62l-2.25-21.889Zm-5.6-6.548A2.667,2.667,0,0,1,26.4,7.616a2.66,2.66,0,0,1,.958,5.167c-.106.035-.145.146-.209.224-.071-.011-.114-.057-.185-.05a.552.552,0,0,0-.263.146.618.618,0,0,0-.376-.174,2.67,2.67,0,0,1-2.505-2.584m2.69,4.422L28.8,37.074l-1.4-1.76-1.987-17.52c0-.032-.032-.05-.043-.085Zm-2.1,5.423,1.5,13.255-1.388-1.728L23.44,22.677ZM22.46,25.207l.557,4.617-1.579-1.977ZM2.147,7.059a4.01,4.01,0,1,1,4.01,4.01,4.014,4.014,0,0,1-4.01-4.01M12.751,49.2l-.216.014a8.98,8.98,0,0,1-.557-1.5l-.128-.419c1.519-1.8.11-10.554-2.129-12.41l-.035-.6a12.57,12.57,0,0,1-.007-1.781,4,4,0,0,1,2.09,1.877,16.676,16.676,0,0,1,2.161,6.04,16.941,16.941,0,0,1-.011,6.416,4.5,4.5,0,0,1-1.168,2.36M78.6,70.933H15.015c-.745,0-1.4-1.086-1.4-2.328s.653-2.332,1.4-2.332H78.6c.738,0,1.388,1.089,1.388,2.332s-.649,2.328-1.388,2.328M17.708,65h-2.64v-8.5H17.6v8.208a.6.6,0,0,0,.11.287m2.544,0h-1.5a.615.615,0,0,0,.124-.287V56.507h1.26v8.208a.647.647,0,0,0,.121.287m1.04,0a.6.6,0,0,0,.114-.287V56.507h2.938V65Zm8.127-4.372a.639.639,0,0,0,.642-.639v-3.2a.547.547,0,0,0-.124-.287H61.383v3.382a.632.632,0,0,0,.635.635.643.643,0,0,0,.642-.635V56.507h5.948V65H62.484a.661.661,0,0,0,.177-.426V62.061a.645.645,0,0,0-.642-.635.635.635,0,0,0-.635.635v2.516a.657.657,0,0,0,.174.426H30c.014-.053.06-.089.06-.146v-2.9a.639.639,0,1,0-1.278,0v2.9c0,.057.053.092.064.146H25.615V56.518l-.007-.011h3.3a.61.61,0,0,0-.124.287v3.2a.642.642,0,0,0,.635.639m40.463-4.124h2.136V65H69.883Zm3.407,0h1.48V65H73.29Zm2.754,0h2.5V65h-2.5Zm7.5-22.215-.039.6c-2.236,1.856-3.641,10.59-2.129,12.4l-.128.429a5.73,5.73,0,0,1-.621,1.569,3.988,3.988,0,0,1-1.32-2.445,16.875,16.875,0,0,1-.007-6.416,16.943,16.943,0,0,1,2.158-6.04,3.948,3.948,0,0,1,2.087-1.863,11.033,11.033,0,0,1,0,1.767m-.617-2.906A5.42,5.42,0,0,0,80.38,33.7a18.064,18.064,0,0,0-2.335,6.516,17.951,17.951,0,0,0,.018,6.913,5.529,5.529,0,0,0,1.554,2.963L78.709,55.2H14.9L13.94,49.79a6.32,6.32,0,0,0,1.221-2.662,18.158,18.158,0,0,0,.021-6.913A18.266,18.266,0,0,0,12.843,33.7a6.186,6.186,0,0,0-2.119-2.129L7.658,14.245,29.086,41.091a.625.625,0,0,0,.539.241.634.634,0,0,0,.507-.316l16.672-28.88L63.474,41.01a.645.645,0,0,0,.5.319.6.6,0,0,0,.547-.241L85.955,14.245ZM87.35,11.069a4.012,4.012,0,1,1,4.007-4.01,4.016,4.016,0,0,1-4.007,4.01M49.8,7.051A.636.636,0,1,0,48.572,6.7a1.793,1.793,0,0,1-3.247.451.636.636,0,0,0-1.075.678A3.066,3.066,0,0,0,49.8,7.051m39.274.5A1.8,1.8,0,0,1,85.82,8a.636.636,0,0,0-1.079.674A3.072,3.072,0,0,0,90.3,7.9a.643.643,0,0,0-.44-.788.622.622,0,0,0-.788.437M8.663,7.112a.625.625,0,0,0-.788.437A1.794,1.794,0,0,1,4.628,8a.634.634,0,1,0-1.075.671A3.061,3.061,0,0,0,9.1,7.9a.636.636,0,0,0-.437-.784M46.805,34.5c-2.048,0-3.708,2.843-3.708,6.352S44.757,47.2,46.805,47.2s3.708-2.843,3.708-6.345S48.853,34.5,46.805,34.5m0-3.57c-3.918,0-7.112,4.45-7.112,9.922s3.194,9.922,7.112,9.922,7.1-4.454,7.1-9.922-3.183-9.922-7.1-9.922m0,18.567c-3.219,0-5.834-3.879-5.834-8.645s2.615-8.648,5.834-8.648,5.834,3.875,5.834,8.648S50.02,49.5,46.805,49.5m30.74,19.014H51.007a.635.635,0,0,0,0,1.27H77.545a.635.635,0,1,0,0-1.27m-29.87,0H46.227a.635.635,0,1,0,0,1.27h1.448a.635.635,0,1,0,0-1.27m-6.452,0h-25.6a.635.635,0,1,0,0,1.27h25.6a.635.635,0,1,0,0-1.27" transform="translate(0 -0.001)" fill="#fff"/>
    </g>
  </g>
</svg>
