<svg xmlns="http://www.w3.org/2000/svg" viewBox="0 0 200 200"><rect width="200" height="200" style="fill:#4758a9"/><polygon points="200 14.14 123.81 68.33 123.81 0 76.19 0 76.19 68.33 0 14.14 0 43.63 45.79 76.19 0 76.19 0 123.81 45.79 123.81 0 156.37 0 185.86 76.19 131.68 76.19 200 123.81 200 123.81 131.68 200 185.86 200 156.37 154.22 123.81 200 123.81 200 76.19 154.22 76.19 200 43.63 200 14.14" style="fill:#fff;fill-rule:evenodd"/><path d="M52.71,76.19,0,38.69V19.05L76.19,73.23v3Zm23.48,47.62H52.71L0,161.31V181l76.19-54.18Zm47.62-50.58v3h23.48L200,38.69V19.05Zm0,50.58v3L200,181V161.31l-52.71-37.5ZM200,85.71H114.29V0H85.71V85.71H0v28.58H85.71V200h28.58V114.29H200Z" style="fill:#ed5565;fill-rule:evenodd"/></svg>