<svg id="组_34" data-name="组 34" xmlns="http://www.w3.org/2000/svg" xmlns:xlink="http://www.w3.org/1999/xlink" width="364.001" height="78.481" viewBox="0 0 364.001 78.481">
  <defs>
    <clipPath id="clip-path">
      <rect id="矩形_37" data-name="矩形 37" width="364.001" height="78.481" fill="#31356d"/>
    </clipPath>
  </defs>
  <g id="组_43" data-name="组 43" transform="translate(0 0)" clip-path="url(#clip-path)">
    <path id="路径_250" data-name="路径 250" d="M147.82,44.8a29.326,29.326,0,0,0,6.4-.691c10.1-2.292,17.1-9.75,18.262-19.467A17.756,17.756,0,0,0,159.388,5.137,18.518,18.518,0,0,0,143.14,7.691a14.694,14.694,0,0,0-4.851,6.059c-3.008,7.171.217,12.536,4.237,15.162,4.392,2.878,11.089,3.418,15.391-1.1a8.057,8.057,0,0,0,2.2-8.244,7.2,7.2,0,0,0-7.859-4.412,5.361,5.361,0,0,0-4.8,5.3.792.792,0,1,0,1.583.056,3.806,3.806,0,0,1,3.462-3.79,5.6,5.6,0,0,1,6.125,3.383,6.479,6.479,0,0,1-1.84,6.6c-3.722,3.905-9.551,3.39-13.4.877-3.485-2.279-6.273-6.949-3.643-13.227a13.176,13.176,0,0,1,4.331-5.4,16.941,16.941,0,0,1,14.874-2.3c8.18,2.33,12.875,9.319,11.96,17.8-1.1,9.167-7.464,15.932-17.038,18.1-9.429,2.136-23.656-.459-32.72-14.792a.788.788,0,0,0-1.323-.015c-13.049,19.674-37.11,11.871-60.375,4.323-22.435-7.275-45.631-14.8-57,4.341a.791.791,0,1,0,1.359.811c10.724-18.058,32.3-11.058,55.15-3.648,23.447,7.6,47.676,15.46,61.5-3.969,7.6,11.287,18.374,15.185,27.349,15.185" transform="translate(3.634 22.658)" fill="#31356d"/>
    <path id="路径_251" data-name="路径 251" d="M14.713,28.185a.554.554,0,0,0,.092-.005c3.087-.365,5.226-1.764,5.855-3.841a4.17,4.17,0,0,0-1.285-4.377,4.911,4.911,0,0,0-5.46-.377A.789.789,0,1,0,14.6,21a3.343,3.343,0,0,1,3.742.163,2.586,2.586,0,0,1,.8,2.71c-.438,1.443-2.065,2.434-4.474,2.728-3.994-.069-6.141-2.779-6.192-5.427-.074-3.3,3-6.8,9.99-7.173,9.88-.762,25.825,4.884,36.957,9.195a.8.8,0,0,0,.612-.02.775.775,0,0,0,.415-.449l4.532-12.521A89.405,89.405,0,0,0,80.58,15.5c8.425.719,11.909-3.021,12.34-6.436a4.752,4.752,0,0,0-2.636-5.218,5.049,5.049,0,0,0-5.17.612,3.24,3.24,0,0,0-.958,3.587.792.792,0,1,0,1.517-.454,1.688,1.688,0,0,1,.466-1.927,3.531,3.531,0,0,1,3.485-.382A3.2,3.2,0,0,1,91.35,8.866c-.339,2.717-3.327,5.669-10.609,5.062A88.244,88.244,0,0,1,60.811,8.447a.794.794,0,0,0-1.032.461L55.244,21.433c-12.1-4.662-27-9.768-36.878-9.008C10.332,12.857,6.811,17.15,6.9,21.208c.071,3.418,2.776,6.918,7.808,6.977Z" transform="translate(10.683 41.642)" fill="#31356d"/>
    <path id="路径_252" data-name="路径 252" d="M55.266,28.622a6.325,6.325,0,0,0,1.19-.12c3.3-.658,4.609-3.286,6-6.069,1.341-2.682,2.858-5.725,6.419-8.065a.789.789,0,1,0-.867-1.318c-3.915,2.572-5.605,5.96-6.964,8.677-1.369,2.743-2.355,4.718-4.892,5.223a2.9,2.9,0,0,1-2.893-.732,2.089,2.089,0,0,1-.482-1.728,1.937,1.937,0,0,1,1-1.338,1.559,1.559,0,0,1,1.435-.056.753.753,0,0,1,.431.558.792.792,0,0,0,1.573-.189,2.337,2.337,0,0,0-1.275-1.774,3.153,3.153,0,0,0-2.9.061,3.53,3.53,0,0,0-1.812,2.424,3.622,3.622,0,0,0,.811,3.051,4.057,4.057,0,0,0,3.23,1.394" transform="translate(79.248 16.928)" fill="#31356d"/>
    <path id="路径_253" data-name="路径 253" d="M74.092,33.022a.8.8,0,0,0,.446-.138.815.815,0,0,0,.339-.548,11.97,11.97,0,0,0-9.11-13.388.814.814,0,0,0-.637.115.792.792,0,0,0-.342.553A11.955,11.955,0,0,0,73.9,33a1.028,1.028,0,0,0,.194.023M66.271,20.746a10.322,10.322,0,0,1,7.122,10.461,10.309,10.309,0,0,1-7.122-10.461" transform="translate(100.193 -2.787)" fill="#31356d"/>
    <path id="路径_254" data-name="路径 254" d="M98.61,44.8c8.975,0,19.756-3.9,27.352-15.185C132.4,38.66,141.081,41.79,150.892,41.8c11.277,0,24.035-4.142,36.569-8.208,22.85-7.41,44.431-14.41,55.155,3.648a.792.792,0,1,0,1.361-.811c-11.374-19.144-34.566-11.616-57-4.341-23.271,7.548-47.332,15.351-60.375-4.323a.758.758,0,0,0-.665-.352.786.786,0,0,0-.66.367C116.209,42.109,101.983,44.7,92.559,42.568,82.982,40.4,76.614,33.631,75.518,24.456c-.913-8.476,3.778-15.465,11.96-17.8a16.948,16.948,0,0,1,14.877,2.3,13.186,13.186,0,0,1,4.331,5.4c2.631,6.273-.158,10.943-3.645,13.222-3.847,2.513-9.679,3.028-13.388-.862a6.513,6.513,0,0,1-1.851-6.62,5.6,5.6,0,0,1,6.123-3.383,3.809,3.809,0,0,1,3.467,3.79.789.789,0,0,0,.823.765.8.8,0,0,0,.76-.821,5.362,5.362,0,0,0-4.808-5.3,7.189,7.189,0,0,0-7.854,4.412,8.073,8.073,0,0,0,2.21,8.254c4.293,4.5,10.989,3.959,15.381,1.086,4.022-2.631,7.247-7.991,4.239-15.162a14.755,14.755,0,0,0-4.851-6.059A18.521,18.521,0,0,0,87.045,5.137,17.751,17.751,0,0,0,73.95,24.64c1.157,9.722,8.155,17.181,18.259,19.473a29.361,29.361,0,0,0,6.4.691" transform="translate(114.372 22.658)" fill="#31356d"/>
    <path id="路径_255" data-name="路径 255" d="M180.561,28.183h.013c5.034-.059,7.734-3.559,7.805-6.977.084-4.058-3.431-8.351-11.486-8.789-9.847-.76-24.759,4.351-36.857,9.014L135.5,8.907a.815.815,0,0,0-.418-.446.792.792,0,0,0-.619-.015,87.665,87.665,0,0,1-19.957,5.481c-7.252.612-10.237-2.345-10.581-5.062a3.19,3.19,0,0,1,1.7-3.574,3.547,3.547,0,0,1,3.518.367,1.7,1.7,0,0,1,.464,1.927.792.792,0,1,0,1.517.454,3.241,3.241,0,0,0-.958-3.587,5.074,5.074,0,0,0-5.2-.6,4.748,4.748,0,0,0-2.61,5.208c.431,3.416,3.921,7.15,12.312,6.442a89.555,89.555,0,0,0,19.62-5.292l4.532,12.521a.8.8,0,0,0,1.03.469c11.134-4.311,27.066-9.967,36.939-9.2,7.018.382,10.082,3.877,10.01,7.173-.054,2.654-2.2,5.363-6.192,5.432-2.409-.293-4.038-1.285-4.476-2.728a2.586,2.586,0,0,1,.8-2.71A3.348,3.348,0,0,1,180.676,21a.789.789,0,1,0,.691-1.42,4.915,4.915,0,0,0-5.463.377,4.165,4.165,0,0,0-1.285,4.377c.63,2.078,2.763,3.477,5.85,3.841a.586.586,0,0,0,.092.005" transform="translate(158.477 41.644)" fill="#31356d"/>
    <path id="路径_256" data-name="路径 256" d="M98.687,28.624a4.061,4.061,0,0,0,3.23-1.394,3.619,3.619,0,0,0,.805-3.051,3.523,3.523,0,0,0-1.807-2.424,3.148,3.148,0,0,0-2.909-.056,2.332,2.332,0,0,0-1.275,1.769.8.8,0,0,0,.693.879.788.788,0,0,0,.882-.691.74.74,0,0,1,.433-.558,1.553,1.553,0,0,1,1.433.056,1.92,1.92,0,0,1,1,1.338,2.062,2.062,0,0,1-.479,1.728,2.888,2.888,0,0,1-2.9.732c-2.531-.5-3.518-2.48-4.892-5.223-1.356-2.717-3.049-6.105-6.962-8.677a.789.789,0,1,0-.869,1.318c3.561,2.34,5.08,5.384,6.419,8.065,1.392,2.784,2.7,5.412,6,6.069a6.331,6.331,0,0,0,1.193.12" transform="translate(131.239 16.925)" fill="#31356d"/>
    <path id="路径_257" data-name="路径 257" d="M75.14,33.022A1.028,1.028,0,0,0,75.334,33a11.951,11.951,0,0,0,9.105-13.383.788.788,0,0,0-.339-.553.807.807,0,0,0-.635-.115,11.97,11.97,0,0,0-9.11,13.388.815.815,0,0,0,.339.548.8.8,0,0,0,.446.138m7.821-12.276a10.32,10.32,0,0,1-7.122,10.461,10.322,10.322,0,0,1,7.122-10.461" transform="translate(115.015 -2.787)" fill="#31356d"/>
    <path id="路径_258" data-name="路径 258" d="M79.852,78.482a.784.784,0,0,0,.64-.324A16.131,16.131,0,0,0,83.7,65.466c-1.675-9.5-11.5-17.288-15.654-20.2,6.643-5.5,17.008-15.894,18.157-27.956.584-6.118-1.346-11.846-5.735-17.028A.781.781,0,0,0,79.355.189a.8.8,0,0,0-.1,1.117c4.1,4.843,5.911,10.181,5.368,15.855C83.438,29.6,71.368,40.566,66.229,44.7a.8.8,0,0,0,.059,1.275c3.288,2.195,14.15,10.122,15.853,19.761a14.618,14.618,0,0,1-2.924,11.489.785.785,0,0,0,.168,1.1.813.813,0,0,0,.467.15" transform="translate(102.144 0)" fill="#31356d"/>
    <path id="路径_259" data-name="路径 259" d="M75.3,78.482a.818.818,0,0,0,.466-.15.79.79,0,0,0,.168-1.1,14.638,14.638,0,0,1-2.924-11.489c1.7-9.638,12.559-17.566,15.853-19.761a.793.793,0,0,0,.056-1.275C83.78,40.566,71.7,29.6,70.522,17.161c-.543-5.679,1.264-11.012,5.368-15.855A.792.792,0,0,0,75.8.189a.785.785,0,0,0-1.114.094c-4.392,5.182-6.322,10.91-5.738,17.028C70.1,29.368,80.456,39.766,87.1,45.267c-4.16,2.911-13.974,10.7-15.654,20.2a16.131,16.131,0,0,0,3.207,12.692.777.777,0,0,0,.64.324" transform="translate(106.648 0)" fill="#31356d"/>
    <path id="路径_260" data-name="路径 260" d="M71.867,49.665a.8.8,0,0,0,.79-.793V18.951a.79.79,0,0,0-1.58,0V48.872a.793.793,0,0,0,.79.793" transform="translate(110.105 -17.478)" fill="#31356d"/>
    <path id="路径_261" data-name="路径 261" d="M4.736,13.668A4.74,4.74,0,1,0,0,8.922a4.746,4.746,0,0,0,4.736,4.746m0-7.9A3.161,3.161,0,1,1,1.58,8.922,3.164,3.164,0,0,1,4.736,5.766" transform="translate(0 54.138)" fill="#31356d"/>
    <path id="路径_262" data-name="路径 262" d="M143.817,13.668a4.74,4.74,0,1,0-4.741-4.746,4.746,4.746,0,0,0,4.741,4.746m0-7.9a3.161,3.161,0,1,1-3.161,3.156,3.16,3.16,0,0,1,3.161-3.156" transform="translate(215.443 54.138)" fill="#31356d"/>
    <path id="路径_263" data-name="路径 263" d="M100.636,21.312A38.028,38.028,0,0,0,116.542,17.8,43.467,43.467,0,0,0,132.224,4.741a.782.782,0,0,0-.14-1.1.791.791,0,0,0-1.111.138,41.972,41.972,0,0,1-15.106,12.6c-8.427,3.984-22.182,5.761-33.194-2.33a25.735,25.735,0,0,1-8.728-11.3.789.789,0,1,0-1.463.591,27.251,27.251,0,0,0,9.256,11.981,31.489,31.489,0,0,0,18.9,6" transform="translate(112.191 51.449)" fill="#31356d"/>
    <path id="路径_264" data-name="路径 264" d="M78.669,21.31a31.492,31.492,0,0,0,18.9-6,27.238,27.238,0,0,0,9.258-11.981.789.789,0,1,0-1.463-.591,25.741,25.741,0,0,1-8.731,11.3c-11.015,8.091-24.765,6.314-33.194,2.33a41.986,41.986,0,0,1-15.1-12.6.792.792,0,0,0-1.111-.138.78.78,0,0,0-.14,1.1A43.531,43.531,0,0,0,62.763,17.795,38.028,38.028,0,0,0,78.669,21.31" transform="translate(72.673 51.451)" fill="#31356d"/>
    <path id="路径_265" data-name="路径 265" d="M64.538,14.29H70.13a.789.789,0,1,0,0-1.578H64.538a.789.789,0,1,0,0,1.578" transform="translate(98.747 31.787)" fill="#31356d"/>
    <path id="路径_266" data-name="路径 266" d="M77.1,14.29h5.593a.789.789,0,1,0,0-1.578H77.1a.789.789,0,1,0,0,1.578" transform="translate(118.212 31.787)" fill="#31356d"/>
    <path id="路径_267" data-name="路径 267" d="M62.04,18.1a2.773,2.773,0,1,0-2.776-2.773A2.777,2.777,0,0,0,62.04,18.1m0-3.964a1.19,1.19,0,1,1-1.193,1.19,1.19,1.19,0,0,1,1.193-1.19" transform="translate(91.806 28.39)" fill="#31356d"/>
    <path id="路径_268" data-name="路径 268" d="M84.3,18.1a2.773,2.773,0,1,0-2.768-2.773A2.778,2.778,0,0,0,84.3,18.1m0-3.964a1.19,1.19,0,1,1-1.19,1.19,1.192,1.192,0,0,1,1.19-1.19" transform="translate(126.304 28.39)" fill="#31356d"/>
  </g>
</svg>
