<svg xmlns="http://www.w3.org/2000/svg" viewBox="0 0 200 200"><rect width="200" height="200" style="fill:#fff"/><path d="M139.12,49.77l5.55-3.7L154.9,61.42l-5.54,3.7Zm21.7,34,5.53-3.66L156.21,64.78l-5.53,3.67Zm9.1-6.16,5.55-3.7L153.14,40.41l-5.54,3.7ZM166.18,54l5.54-3.7L161.48,34.94l-5.54,3.7Zm11.41,18.64L183.12,69,173,53.66l-5.53,3.67ZM55.41,154l5.55-3.7L38.64,116.81l-5.55,3.7ZM35,141.4l5.54-3.7L30.26,122.35l-5.54,3.7Zm12.18,18.16,5.55-3.7L42.45,140.51l-5.55,3.7Zm-8.41,5.57,5.55-3.69L22,128l-5.55,3.69Zm0-81.82L61,49.84l-5.55-3.7L33.13,79.61Zm-8.39-5.65L52.62,44.19l-5.54-3.7L24.74,74ZM21.93,72,44.28,38.59l-5.54-3.71L16.39,68.34ZM144.76,154,155,138.61l-5.55-3.7-10.24,15.35Zm11.18-18.49,10.15-15.32-5.54-3.66L150.4,131.8Zm1.92,5-10.24,15.35,5.48,3.69,10.23-15.35Zm6.27.53,10.15-15.32L168.75,122,158.6,137.34Zm-3.65,23.63,10.15-15.31-5.53-3.67L155,161Zm7.5-21.43,5.59,3.81,10.24-15.35-5.6-3.81Z" style="fill:#434a54"/><path d="M66.67,77.62a20.09,20.09,0,0,0,33.45,22.26,20.09,20.09,0,0,1,33.45,22.26A40.18,40.18,0,1,1,66.43,78h0Z" style="fill:#4758a9"/><path d="M122.5,66.55a40.17,40.17,0,0,0-55.71,11l-.1.14A20.1,20.1,0,0,0,100.12,100a20.09,20.09,0,0,1,33.45,22.26,40.09,40.09,0,0,0-10.95-55.59Z" style="fill:#ed5565"/></svg>