<svg xmlns="http://www.w3.org/2000/svg" xmlns:xlink="http://www.w3.org/1999/xlink" width="129.758" height="38.042" viewBox="0 0 129.758 38.042">
  <defs>
    <clipPath id="clip-path">
      <rect id="矩形_20" data-name="矩形 20" width="129.757" height="38.042" fill="#fff"/>
    </clipPath>
  </defs>
  <g id="组_23" data-name="组 23" transform="translate(0 0)">
    <g id="组_20" data-name="组 20" transform="translate(0 0)" clip-path="url(#clip-path)">
      <path id="路径_203" data-name="路径 203" d="M129.058,31.612a.083.083,0,0,1-.027,0H.7A.7.7,0,0,1,.178,30.45L11.614,17.6.178,4.749A.7.7,0,0,1,.7,3.586H129.031a.7.7,0,0,1,.521,1.163L118.115,17.6l11.338,12.738a.7.7,0,0,1-.4,1.275m-126.8-1.4H127.476L116.662,18.064a.7.7,0,0,1,0-.929L127.476,4.982H2.255L13.068,17.135a.7.7,0,0,1,0,.929Z" transform="translate(0 1.421)" fill="#fff"/>
      <path id="路径_204" data-name="路径 204" d="M104.479,1.4H14.4a.7.7,0,1,1,0-1.4h90.084a.7.7,0,1,1,0,1.4" transform="translate(5.428 0)" fill="#fff"/>
      <path id="路径_205" data-name="路径 205" d="M104.479,27.641H14.4a.7.7,0,1,1,0-1.4h90.084a.7.7,0,1,1,0,1.4" transform="translate(5.428 10.4)" fill="#fff"/>
      <path id="路径_206" data-name="路径 206" d="M78.422,17.694a3.172,3.172,0,1,1,3.172-3.172,3.174,3.174,0,0,1-3.172,3.172m0-4.947A1.775,1.775,0,1,0,80.2,14.522a1.776,1.776,0,0,0-1.776-1.775" transform="translate(29.82 4.498)" fill="#fff"/>
      <path id="路径_207" data-name="路径 207" d="M16.35,17.694a3.172,3.172,0,1,1,3.171-3.172,3.174,3.174,0,0,1-3.171,3.172m0-4.947a1.775,1.775,0,1,0,1.775,1.775,1.776,1.776,0,0,0-1.775-1.775" transform="translate(5.223 4.498)" fill="#fff"/>
    </g>
  </g>
</svg>
