<svg xmlns="http://www.w3.org/2000/svg" xmlns:xlink="http://www.w3.org/1999/xlink" width="150" height="150" viewBox="0 0 150 150">
  <defs>
    <clipPath id="clip-path">
      <rect id="矩形_867" data-name="矩形 867" width="102.365" height="132.67" fill="none"/>
    </clipPath>
  </defs>
  <g id="组_212" data-name="组 212" transform="translate(14371.833 -8011.736)">
    <circle id="椭圆_87" data-name="椭圆 87" cx="75" cy="75" r="75" transform="translate(-14371.833 8011.736)" fill="#fff"/>
    <g id="组_209" data-name="组 209" transform="translate(-14347.613 8020.292)" clip-path="url(#clip-path)">
      <path id="路径_3795" data-name="路径 3795" d="M64.425,95.9A14.655,14.655,0,1,1,49.77,81.248,14.654,14.654,0,0,1,64.425,95.9M36.7,113.956c-2.764,1.612-4.146,8.579-4.146,8.579s8.35-.518,20.1-.633c13.82,5.355,14.338-13.129,14.338-13.129-10.25,7.889-25.855,6.91-30.289,5.182M55.3,73.763c-14.453-7.889-19.117,1.325-21.075,9.328,19.808-12.956,35.643,0,35.643,0a12.4,12.4,0,0,0,.691-4.549c-.288-1.67-.691-4.779-.691-4.779s-.691-.173-14.568,0m46.613,9.328c-2.85,10.8-12.783,16.065-12.783,16.065s2.419-5.787.346-8.983-2.419-.518-2.937,2.418-2.246,13.993-18.311,7.731c0,0,9.76-8.508,4.059-26.214,11.66-.346,15.331-1.6,3.109-6.089s-36.623-2.433-44.281,4.419-9.962,16.872-6.766,28.446a17.612,17.612,0,0,0-4.837,16.234c-.072-.294,2.6-7.261,7.774-10.965,3.455,5.1,5.873,6.075,5.873,6.075s-8.292,10.855-2.073,20.442C14.76,129.992-3.551,120.923.595,89.656S26.852,53.379,30.653,53.033C26.421,48.11,20.518,41.8,22.591,36.219S34.856,30,34.684,23.551c-3.4,3.4-9.559,4.779-9.559,4.779S37.044,0,50.346,0,75.481,27.726,75.481,27.726s-6.824-1.987-9.5-4.405c1.555,4.319,3.369,5.614,7.947,7.946s6.651,8.033,2.936,13.561-6.219,7.082-6.219,7.082A25,25,0,0,0,77.036,50.7c4.059-1.209,10.278,3.8,13.3,7s14.425,14.6,11.574,25.394M43.739,7.515A34.886,34.886,0,0,1,56.522,7.3c-3.973-4.88-5.442-4.88-6.564-4.837s-3.887,1.986-6.219,5.053M32.553,34.895l17.793-7.86,17.793,7.86S58.9,25.48,50.13,21.507c-9.2,3.714-17.577,13.388-17.577,13.388M70.61,48.887c10.936-6.132-11.368-16.5-20.264-19.521C38.686,33.081,31.862,37.4,28.321,42.5s2.764,6.564,2.764,6.564L31,43.187c1.123,4.923,7.083,9.5,7.083,9.5a8.155,8.155,0,0,0-4.492-.6c2.591,5.7,16.757,12.092,16.757,12.092,9.911-3.789,17.793-12.092,17.793-12.092s-.691-1.555-6.391.345c4.75-2.332,7.774-8.81,7.774-8.81s1.814,1.21,1.089,5.269" transform="translate(0)" fill="#4740a2"/>
      <path id="路径_3796" data-name="路径 3796" d="M87.556,169.667h6.91l-2.807,5.182h5.1s-7.515,12.61-7.644,12.61.677-8.162.677-8.162H83.064Z" transform="translate(-40.017 -81.738)" fill="#ffcb4d"/>
    </g>
  </g>
</svg>
