<svg xmlns="http://www.w3.org/2000/svg" xmlns:xlink="http://www.w3.org/1999/xlink" width="70" height="70" viewBox="0 0 70 70">
  <defs>
    <clipPath id="clip-path">
      <rect id="矩形_879" data-name="矩形 879" width="70" height="70" transform="translate(0 -0.194)" fill="none"/>
    </clipPath>
  </defs>
  <g id="组_240" data-name="组 240" transform="translate(1.005 0.616)">
    <g id="组_239" data-name="组 239" transform="translate(-1.005 -0.422)" clip-path="url(#clip-path)">
      <path id="路径_3801" data-name="路径 3801" d="M68.787,34.393A34.393,34.393,0,1,1,34.393,0,34.393,34.393,0,0,1,68.787,34.393" transform="translate(1.019 0.401)" fill="#003559"/>
      <path id="路径_3802" data-name="路径 3802" d="M89.5,59.042A30.461,30.461,0,1,1,59.042,28.58,30.461,30.461,0,0,1,89.5,59.042" transform="translate(-23.629 -24.248)" fill="#00507c"/>
      <path id="路径_3803" data-name="路径 3803" d="M97.644,68.727A28.916,28.916,0,1,1,68.727,39.81,28.917,28.917,0,0,1,97.644,68.727" transform="translate(-33.315 -33.933)" fill="#001e33"/>
      <path id="路径_3804" data-name="路径 3804" d="M119.215,94.394A24.822,24.822,0,1,1,94.393,69.572a24.822,24.822,0,0,1,24.822,24.822" transform="translate(-58.981 -59.6)" fill="#003559"/>
      <path id="路径_3805" data-name="路径 3805" d="M268.656,110.6c-5.093-1.46-8.88-5.787-12.063-5.787s-3.281,3.061-4.407,4.579-3.528,1.175-3.528,1.175a24.319,24.319,0,0,0-.243,3.616,26.231,26.231,0,0,0,2.253,1.434v-1.964l.721,2.356a21.493,21.493,0,0,0,3.955,1.6c-.687-1.536-1.787-3.955-1.787-3.955l3.242,4.317a19.088,19.088,0,0,0,4.993.375l-4.684-5.329,6.125,5.194a22.407,22.407,0,0,0,6.407-1.878c-2.509-.387-6.373-1.865-10.94-6.6,0,0,8.454,8.516,14.314,4.751a26.285,26.285,0,0,0,4.655-3.731,16.511,16.511,0,0,1-9.011-.155" transform="translate(-213.221 -89.989)" fill="#f6f6e9"/>
      <path id="路径_3806" data-name="路径 3806" d="M43.967,110.6c5.093-1.46,8.88-5.787,12.063-5.787s3.281,3.061,4.407,4.579,3.528,1.175,3.528,1.175a24.316,24.316,0,0,1,.243,3.616,26.235,26.235,0,0,1-2.253,1.434v-1.964L61.235,116a21.493,21.493,0,0,1-3.955,1.6c.687-1.536,1.787-3.955,1.787-3.955l-3.242,4.317a19.088,19.088,0,0,1-4.993.375l4.684-5.329L49.39,118.2a22.407,22.407,0,0,1-6.407-1.878c2.509-.387,6.373-1.865,10.94-6.6,0,0-8.454,8.516-14.314,4.751a26.284,26.284,0,0,1-4.655-3.731,16.511,16.511,0,0,0,9.011-.155" transform="translate(-29.128 -89.989)" fill="#f6f6e9"/>
      <path id="路径_3807" data-name="路径 3807" d="M231.271,87.159a3.175,3.175,0,1,1-3.175-3.175,3.175,3.175,0,0,1,3.175,3.175" transform="translate(-192.959 -72.03)" fill="#f6f6e9"/>
      <path id="路径_3808" data-name="路径 3808" d="M239.109,167.034h-.229l-1.322-49.412h2.873Z" transform="translate(-203.858 -101.04)" fill="#f6f6e9"/>
      <rect id="矩形_877" data-name="矩形 877" width="4.591" height="0.808" transform="translate(32.842 18.1)" fill="#f6f6e9"/>
      <rect id="矩形_878" data-name="矩形 878" width="4.591" height="0.808" transform="translate(32.842 19.288)" fill="#f6f6e9"/>
      <path id="路径_3809" data-name="路径 3809" d="M202.762,234.421s6.471,4.514,3.68,10.048-9.3,5.569-14.308,9.783-2.476,11.189,7.641,10.188c0,0-5.5.514-7.592-2.5-2.907-4.2,3-7,6.235-8.123a33.423,33.423,0,0,0,8.85-4.331c5.671-4.217,4.937-12.838-4.505-15.06" transform="translate(-162.531 -201.77)" fill="#fd5f00"/>
      <path id="路径_3810" data-name="路径 3810" d="M168.4,203.388s-6.471,4.514-3.68,10.048,9.3,5.569,14.308,9.783,2.476,11.189-7.641,10.188c0,0,5.5.514,7.592-2.5,2.907-4.2-3-7-6.235-8.123a33.422,33.422,0,0,1-8.85-4.331c-5.671-4.217-4.937-12.838,4.505-15.06" transform="translate(-137.232 -175.007)" fill="#fd5f00"/>
    </g>
  </g>
</svg>
