<svg xmlns="http://www.w3.org/2000/svg" xmlns:xlink="http://www.w3.org/1999/xlink" width="203.981" height="34" viewBox="0 0 203.981 34">
  <defs>
    <clipPath id="clip-path">
      <rect id="矩形_5" data-name="矩形 5" width="203.981" height="34" fill="#636dff"/>
    </clipPath>
  </defs>
  <g id="组_7" data-name="组 7" transform="translate(0 0)">
    <g id="组_2" data-name="组 2" transform="translate(0 0)" clip-path="url(#clip-path)">
      <path id="路径_2" data-name="路径 2" d="M105.157,14.886c-3.7,0-8-2.238-12.859-4.768C86.1,6.9,79.076,3.218,71.627,3.423a.608.608,0,0,1-.633-.6.619.619,0,0,1,.6-.634C79.365,2,86.539,5.731,92.867,9.024c5.542,2.886,10.328,5.373,14,4.416,1.974-.514,3.326-1.627,3.71-3.054a3.147,3.147,0,0,0-.463-2.768,3.256,3.256,0,0,0-2.523-1.267,2.919,2.919,0,0,0-2.4,1.083,1.487,1.487,0,0,0-.269,1.337,1.156,1.156,0,0,0,1.311.8.617.617,0,0,1,.194,1.219,2.362,2.362,0,0,1-2.673-1.622,2.685,2.685,0,0,1,.442-2.461,4.19,4.19,0,0,1,3.418-1.585A4.48,4.48,0,0,1,111.1,6.877a4.369,4.369,0,0,1,.667,3.829c-.5,1.869-2.177,3.3-4.591,3.931a8.034,8.034,0,0,1-2.018.248" transform="translate(49.726 1.529)" fill="#636dff"/>
      <path id="路径_3" data-name="路径 3" d="M106.82,32.075a14.015,14.015,0,0,1-2.865-.3A11.384,11.384,0,0,1,95.248,24.1a10.026,10.026,0,0,1,1.772-9.42,9.174,9.174,0,0,1,8.342-3.352c3.659.44,6.409,2.459,7.358,5.39a6.3,6.3,0,0,1-5.613,8.3c-2.744.046-3.894-1.17-4.329-1.91a3.141,3.141,0,0,1-.007-3.17,3.389,3.389,0,0,1,3.093-1.627.615.615,0,0,1,.605.627.633.633,0,0,1-.626.607h-.049a2.167,2.167,0,0,0-1.957,1.015,1.9,1.9,0,0,0,0,1.92c.517.876,1.666,1.343,3.241,1.3a5.071,5.071,0,0,0,4.465-6.689c-.8-2.462-3.163-4.163-6.332-4.545a7.948,7.948,0,0,0-7.239,2.908,8.8,8.8,0,0,0-1.558,8.25,10.185,10.185,0,0,0,7.791,6.865,12.043,12.043,0,0,0,11.162-3.3,11.239,11.239,0,0,0,2.807-7.618,12.826,12.826,0,0,0-4.282-9.084c-4.134-3.845-10.708-5.883-18.023-5.6C86.491,5.346,79.7,8.412,75.7,12.184A10.287,10.287,0,0,1,77.389,19.5a8.1,8.1,0,0,1-2.8,5.316,2.881,2.881,0,0,1-2.141.622,2.435,2.435,0,0,1-1.646-1.165c-.883-1.381-.968-3.69-.23-6.343a14.2,14.2,0,0,1,3.493-5.838,8.622,8.622,0,0,0-.719-.735C71.323,9.533,67.438,7.74,60.393,9.568a.61.61,0,0,1-.677-.265.617.617,0,0,1,.053-.728l6.076-7.159A39.91,39.91,0,0,0,50.461,2.923a33.811,33.811,0,0,0-8.227,3.651c-1.556.906-6.78,3.722-8.715,1.792A1.738,1.738,0,0,1,33,7a2.535,2.535,0,0,1,1.1-1.791.618.618,0,0,1,.75.983,1.357,1.357,0,0,0-.616.893.5.5,0,0,0,.158.408c.928.928,4.334-.3,7.223-1.986a34.9,34.9,0,0,1,8.494-3.765A41.407,41.407,0,0,1,67.142.311a.621.621,0,0,1,.5.389.612.612,0,0,1-.1.624L61.9,7.968c6.45-1.228,10.211.612,12.272,2.471a9.831,9.831,0,0,1,.772.78c4.231-3.93,11.259-7.1,20.876-7.475,7.652-.3,14.54,1.859,18.914,5.926a14.032,14.032,0,0,1,4.676,9.961,12.488,12.488,0,0,1-3.127,8.472,12.8,12.8,0,0,1-9.466,3.972m-32.009-19a12.9,12.9,0,0,0-3.047,5.179c-.633,2.28-.6,4.28.082,5.348a1.261,1.261,0,0,0,.806.61,1.7,1.7,0,0,0,1.216-.4,6.875,6.875,0,0,0,2.3-4.506,9.005,9.005,0,0,0-1.355-6.234" transform="translate(23.112 0)" fill="#636dff"/>
      <path id="路径_4" data-name="路径 4" d="M32.253,14.886a7.825,7.825,0,0,1-2.018-.248c-2.415-.633-4.088-2.066-4.589-3.931a4.353,4.353,0,0,1,.668-3.829A4.416,4.416,0,0,1,29.8,5.122,4.154,4.154,0,0,1,33.21,6.7a2.69,2.69,0,0,1,.446,2.464,2.357,2.357,0,0,1-2.673,1.622.617.617,0,1,1,.192-1.219,1.147,1.147,0,0,0,1.313-.8,1.482,1.482,0,0,0-.27-1.337,2.893,2.893,0,0,0-2.394-1.083A3.25,3.25,0,0,0,27.3,7.618a3.142,3.142,0,0,0-.464,2.768c.383,1.427,1.736,2.54,3.71,3.054C34.215,14.4,39,11.91,44.542,9.024c6.331-3.294,13.512-7.019,21.272-6.836a.617.617,0,0,1,.6.634.605.605,0,0,1-.633.6c-7.451-.2-14.472,3.472-20.672,6.695-4.856,2.53-9.157,4.768-12.859,4.768" transform="translate(17.84 1.529)" fill="#636dff"/>
      <path id="路径_5" data-name="路径 5" d="M49.324,32.075A12.8,12.8,0,0,1,39.853,28.1a12.5,12.5,0,0,1-3.125-8.461A14.069,14.069,0,0,1,41.4,9.67C45.779,5.6,52.671,3.445,60.319,3.744,69.937,4.124,76.963,7.29,81.2,11.22a9.3,9.3,0,0,1,.774-.78c2.059-1.859,5.819-3.7,12.269-2.471L88.6,1.325A.619.619,0,0,1,89,.311a41.415,41.415,0,0,1,17.037,1.43,35.093,35.093,0,0,1,8.5,3.765c2.886,1.689,6.292,2.915,7.22,1.986a.508.508,0,0,0,.16-.408,1.382,1.382,0,0,0-.616-.893.617.617,0,0,1,.745-.983A2.549,2.549,0,0,1,123.143,7a1.744,1.744,0,0,1-.519,1.367c-1.94,1.933-7.162-.883-8.715-1.792a33.9,33.9,0,0,0-8.227-3.651A39.925,39.925,0,0,0,90.3,1.417l6.077,7.159a.622.622,0,0,1,.051.728.613.613,0,0,1-.678.265C88.7,7.74,84.815,9.533,82.792,11.356a8.883,8.883,0,0,0-.719.735,14.162,14.162,0,0,1,3.493,5.838c.736,2.649.655,4.962-.23,6.343a2.431,2.431,0,0,1-1.646,1.165,2.87,2.87,0,0,1-2.143-.622A8.094,8.094,0,0,1,78.753,19.5a10.286,10.286,0,0,1,1.69-7.314c-4-3.772-10.793-6.837-20.174-7.208-7.324-.291-13.891,1.753-18.026,5.6a12.837,12.837,0,0,0-4.282,9.1,11.229,11.229,0,0,0,2.807,7.6,12.048,12.048,0,0,0,11.163,3.3,10.185,10.185,0,0,0,7.791-6.865,8.791,8.791,0,0,0-1.558-8.25,7.953,7.953,0,0,0-7.239-2.908c-3.17.383-5.538,2.083-6.332,4.545a5.068,5.068,0,0,0,4.467,6.689,3.554,3.554,0,0,0,3.29-1.337,1.884,1.884,0,0,0,.012-1.9,2.28,2.28,0,0,0-2.1-1.024h-.008a.617.617,0,0,1-.01-1.235,3.485,3.485,0,0,1,3.181,1.638,3.113,3.113,0,0,1-.015,3.146c-.752,1.279-2.355,1.983-4.379,1.942a6.3,6.3,0,0,1-5.613-8.3c.945-2.932,3.7-4.95,7.356-5.39a9.169,9.169,0,0,1,8.341,3.348A10.033,10.033,0,0,1,60.894,24.1a11.386,11.386,0,0,1-8.71,7.683,13.941,13.941,0,0,1-2.86.3m32-19a9.04,9.04,0,0,0-1.354,6.234,6.855,6.855,0,0,0,2.3,4.5,1.693,1.693,0,0,0,1.214.4,1.256,1.256,0,0,0,.808-.61c.684-1.068.712-3.068.08-5.348a12.889,12.889,0,0,0-3.049-5.179" transform="translate(25.724 0)" fill="#636dff"/>
      <path id="路径_6" data-name="路径 6" d="M61.586,25.119c-1.039,0-1.979-.816-2.578-2.234A9.617,9.617,0,0,1,61.13,12.857a.636.636,0,0,1,.881,0,9.635,9.635,0,0,1,2.124,10.05c-.59,1.406-1.522,2.212-2.549,2.212m-.015-10.91a8.35,8.35,0,0,0-1.423,8.2c.383.91.935,1.476,1.439,1.476s1.034-.558,1.41-1.457a8.36,8.36,0,0,0-1.425-8.218" transform="translate(40.905 8.882)" fill="#636dff"/>
      <path id="路径_7" data-name="路径 7" d="M60.519,19.5a.615.615,0,0,1-.616-.616V5.725a.617.617,0,0,1,1.235,0V18.883a.618.618,0,0,1-.619.616" transform="translate(41.958 3.58)" fill="#636dff"/>
      <path id="路径_8" data-name="路径 8" d="M5.315,11.282A5.351,5.351,0,0,1,1.359,9.4a5.263,5.263,0,0,1-.68-6.116C1.831,1.166,4.229,0,7.431,0L85.6.045V1.278L7.431,1.236c-2.727,0-4.741.939-5.666,2.639a4,4,0,0,0,.522,4.712A3.811,3.811,0,0,0,6.428,9.843c1.9-.726,2.226-1.972,1.9-2.9a1.784,1.784,0,0,0-1.74-1.127c-.432.012-.769.173-.838.4a.617.617,0,1,1-1.182-.354A1.981,1.981,0,0,1,6.56,4.585,2.985,2.985,0,0,1,9.5,6.536c.49,1.4.1,3.414-2.622,4.46a4.291,4.291,0,0,1-1.558.286" transform="translate(0 0.001)" fill="#636dff"/>
      <path id="路径_9" data-name="路径 9" d="M150.157,11.282A4.288,4.288,0,0,1,148.6,11c-2.722-1.046-3.113-3.056-2.622-4.46a2.99,2.99,0,0,1,2.932-1.95,1.977,1.977,0,0,1,1.991,1.28.616.616,0,1,1-1.18.354c-.07-.228-.406-.389-.84-.4a1.8,1.8,0,0,0-1.741,1.127c-.321.925.007,2.171,1.9,2.9a3.811,3.811,0,0,0,4.141-1.257,4.006,4.006,0,0,0,.522-4.712c-.923-1.7-2.937-2.639-5.668-2.639l-78.162.043h0a.616.616,0,0,1,0-1.233L148.04,0c3.205,0,5.6,1.165,6.751,3.282a5.26,5.26,0,0,1-.678,6.116,5.345,5.345,0,0,1-3.955,1.882" transform="translate(48.512 0.001)" fill="#636dff"/>
      <path id="路径_10" data-name="路径 10" d="M4.257,6.261a1.681,1.681,0,1,1,1.678-1.68,1.683,1.683,0,0,1-1.678,1.68m0-2.129a.446.446,0,1,0,.446.449.449.449,0,0,0-.446-.449" transform="translate(1.805 2.031)" fill="#636dff"/>
      <path id="路径_11" data-name="路径 11" d="M29.566,8.724A1.82,1.82,0,1,1,31.388,6.9a1.821,1.821,0,0,1-1.821,1.823m0-2.408a.586.586,0,1,0,.588.585.587.587,0,0,0-.588-.585" transform="translate(19.435 3.561)" fill="#636dff"/>
      <path id="路径_12" data-name="路径 12" d="M45.582,15.251a2.243,2.243,0,1,1,2.243-2.241,2.243,2.243,0,0,1-2.243,2.241m0-3.248a1.007,1.007,0,1,0,1.01,1.007A1.009,1.009,0,0,0,45.582,12" transform="translate(30.357 7.54)" fill="#636dff"/>
      <path id="路径_13" data-name="路径 13" d="M117.071,6.261a1.681,1.681,0,1,1,1.68-1.68,1.681,1.681,0,0,1-1.68,1.68m0-2.129a.446.446,0,1,0,.449.449.448.448,0,0,0-.449-.449" transform="translate(80.825 2.031)" fill="#636dff"/>
      <path id="路径_14" data-name="路径 14" d="M92.475,8.724A1.82,1.82,0,1,1,94.3,6.9a1.823,1.823,0,0,1-1.821,1.823m0-2.408a.586.586,0,1,0,.588.585.589.589,0,0,0-.588-.585" transform="translate(63.496 3.561)" fill="#636dff"/>
      <path id="路径_15" data-name="路径 15" d="M76.8,15.251a2.243,2.243,0,1,1,2.239-2.241A2.242,2.242,0,0,1,76.8,15.251M76.8,12a1.007,1.007,0,1,0,1.008,1.007A1.01,1.01,0,0,0,76.8,12" transform="translate(52.227 7.54)" fill="#636dff"/>
      <path id="路径_16" data-name="路径 16" d="M60.314,2.751H15.536a.618.618,0,0,1,0-1.236H60.314a.618.618,0,0,1,0,1.236" transform="translate(10.45 1.061)" fill="#636dff"/>
      <path id="路径_17" data-name="路径 17" d="M124.318,2.751H79.542a.618.618,0,1,1,0-1.236h44.776a.618.618,0,0,1,0,1.236" transform="translate(55.28 1.061)" fill="#636dff"/>
    </g>
  </g>
</svg>
