<svg xmlns="http://www.w3.org/2000/svg" width="50" height="50" viewBox="0 0 50 50">
  <g id="组_217" data-name="组 217" transform="translate(-434 -828)">
    <circle id="椭圆_88" data-name="椭圆 88" cx="25" cy="25" r="25" transform="translate(434 828)" fill="#2775c9"/>
    <path id="路径_3797" data-name="路径 3797" d="M22.3,40.605a18.3,18.3,0,1,1,18.3-18.3,18.3,18.3,0,0,1-18.3,18.3Zm-1.09-25.094A4.019,4.019,0,0,0,17.4,19.359c0,1.885,1.153,3.115,3.6,3.629l1.713.4c1.667.389,2.352.95,2.352,1.9s-1.2,1.885-2.757,1.885a2.96,2.96,0,0,1-2.8-1.417,1.059,1.059,0,0,0-.95-.607H17.63a.545.545,0,0,0-.436.639,4.252,4.252,0,0,0,4.066,3.24V30.34a1.1,1.1,0,0,0,2.2,0V29.016A4.081,4.081,0,0,0,27.49,25c0-1.978-1.137-3.115-3.832-3.692L22.1,20.963c-1.558-.389-2.29-.9-2.29-1.776s.935-1.838,2.492-1.838a2.555,2.555,0,0,1,2.477,1.262,1.246,1.246,0,0,0,1.122.717h.732a.654.654,0,0,0,.483-.779,4.128,4.128,0,0,0-3.707-3.115V14.359a1.1,1.1,0,1,0-2.2,0v1.153ZM8.58,22.3a13.692,13.692,0,0,0,9.346,12.975h.218a.7.7,0,0,0,.7-.7V34.25a1.464,1.464,0,0,0-.9-1.355,11.465,11.465,0,0,1,0-21.262,1.449,1.449,0,0,0,.9-1.34V9.935a.654.654,0,0,0-.872-.623A13.692,13.692,0,0,0,8.58,22.3Zm27.446,0A13.692,13.692,0,0,0,26.68,9.343h-.234a.732.732,0,0,0-.732.732v.234a1.558,1.558,0,0,0,.95,1.4,11.465,11.465,0,0,1,0,21.247,1.558,1.558,0,0,0-.935,1.386v.265a.732.732,0,0,0,.966.685A13.692,13.692,0,0,0,36.026,22.3Z" transform="translate(437 831)" fill="#fff"/>
  </g>
</svg>
