<svg xmlns="http://www.w3.org/2000/svg" width="50" height="50" viewBox="0 0 50 50">
  <g id="组_90" data-name="组 90" transform="translate(-387 -2943)">
    <g id="组_1555" data-name="组 1555" transform="translate(387 2943.41)">
      <circle id="椭圆_13" data-name="椭圆 13" cx="25" cy="25" r="25" transform="translate(0 -0.41)" fill="#333"/>
      <g id="组_1531" data-name="组 1531" transform="translate(4.4 10.475)">
        <path id="路径_3526" data-name="路径 3526" d="M7.475.174.036,15.8a.3.3,0,0,0,.065.353L20.192,35.4a.307.307,0,0,0,.424,0L40.707,16.15a.3.3,0,0,0,.065-.353L33.332.175A.3.3,0,0,0,33.058,0H7.751a.3.3,0,0,0-.277.174Z" transform="translate(-0.006)" fill="#11d8a9" fill-rule="evenodd"/>
        <path id="路径_3527" data-name="路径 3527" d="M79.384,52.8h0c-.144.011-.89.055-2.552.055-1.322,0-2.261-.04-2.59-.055h0c-5.109-.225-8.923-1.115-8.923-2.179s3.813-1.953,8.923-2.182v3.476c.334.024,1.291.08,2.613.08,1.587,0,2.381-.066,2.524-.079V48.44c5.1.227,8.9,1.117,8.9,2.179s-3.8,1.952-8.9,2.179h0Zm0-4.718v-3.11H86.5V40.23H67.127v4.742h7.114V48.08c-5.782.266-10.131,1.411-10.131,2.784s4.349,2.517,10.131,2.784v9.964h5.142V53.644c5.769-.266,10.111-1.41,10.111-2.781s-4.338-2.516-10.111-2.782h0ZM79.384,48.081Z" transform="translate(-56.405 -35.394)" fill="#fff" fill-rule="evenodd"/>
      </g>
    </g>
  </g>
</svg>
