<svg xmlns="http://www.w3.org/2000/svg" viewBox="0 0 200 200"><rect width="200" height="200" style="fill:#ed5565"/><path d="M103.86,40.48l12.86,38.9a4.06,4.06,0,0,0,3.87,2.76H162.2a4,4,0,0,1,4.07,3.94,4.54,4.54,0,0,1-.15,1.15,4.07,4.07,0,0,1-1.63,2.23l-33.55,23.89a4,4,0,0,0-1.48,4.51l12.86,38.88a4.05,4.05,0,0,1-6.26,4.47l-33.69-24.13a4.12,4.12,0,0,0-4.76,0L63.92,161.14a4.05,4.05,0,0,1-6.27-4.47L70.5,117.86A4,4,0,0,0,69,113.35l-33.65-24a4,4,0,0,1,2.38-7.25H79.43a4.08,4.08,0,0,0,3.88-2.76l12.81-38.9a4.08,4.08,0,0,1,7.74,0Z" style="fill:#ffe35a"/></svg>