<svg id="组_18" data-name="组 18" xmlns="http://www.w3.org/2000/svg" xmlns:xlink="http://www.w3.org/1999/xlink" width="161" height="161" viewBox="0 0 161 161">
  <defs>
    <clipPath id="clip-path">
      <rect id="矩形_19" data-name="矩形 19" width="161" height="161" fill="#636dff"/>
    </clipPath>
  </defs>
  <g id="组_16" data-name="组 16" transform="translate(0 0)" clip-path="url(#clip-path)">
    <path id="路径_163" data-name="路径 163" d="M1.465,41.71c.061-.03.1-.061.165-.084,2.138-1.182,4.34-2.407,6.693-3.787,6.43-3.676,9.639-8.413,8.8-13.019a7.633,7.633,0,0,0-6.383-6.366A7.282,7.282,0,0,0,3.08,21.544c-1.919,3.286-1.1,5.807.549,6.844a3.56,3.56,0,0,0,4.094-.5c.724-.613,1.087-1.363.875-1.858a.977.977,0,0,1,1.808-.741c.532,1.323-.013,2.885-1.434,4.084a5.446,5.446,0,0,1-6.37.65c-2.454-1.518-3.767-5.04-1.192-9.46a9.18,9.18,0,0,1,9.662-4.02,9.633,9.633,0,0,1,7.969,7.932,10.516,10.516,0,0,1-.855,6.282C16.732,33.977,13.7,37.01,9.3,39.515c-1.32.774-2.6,1.5-3.838,2.2,1.242.694,2.518,1.421,3.838,2.2,4.4,2.515,7.423,5.545,8.891,8.77a10.472,10.472,0,0,1,.848,6.269,9.632,9.632,0,0,1-7.975,7.942A9.211,9.211,0,0,1,1.4,62.862C-1.172,58.435.141,54.917,2.6,53.4a5.455,5.455,0,0,1,6.373.656c1.411,1.188,1.959,2.754,1.424,4.077a.971.971,0,0,1-1.8-.727c.205-.495-.145-1.256-.875-1.872a3.564,3.564,0,0,0-4.094-.5c-1.66,1.037-2.461,3.552-.545,6.848a7.249,7.249,0,0,0,7.646,3.087,7.629,7.629,0,0,0,6.4-6.366c.828-4.6-2.367-9.342-8.8-13.015C5.969,44.215,3.767,42.986,1.629,41.8a1.031,1.031,0,0,1-.165-.094" transform="translate(0 38.768)" fill="#636dff"/>
    <path id="路径_164" data-name="路径 164" d="M41.734,1.455c.027.061.054.114.084.172C43,3.768,44.225,5.973,45.606,8.333c3.676,6.423,8.416,9.625,13.015,8.794a7.63,7.63,0,0,0,6.37-6.386A7.278,7.278,0,0,0,61.9,3.085c-3.293-1.919-5.811-1.111-6.851.539a3.553,3.553,0,0,0,.5,4.09c.609.734,1.36,1.091,1.858.889a.973.973,0,0,1,.737,1.8c-1.323.535-2.885-.01-4.084-1.431a5.457,5.457,0,0,1-.65-6.373c1.518-2.448,5.043-3.76,9.46-1.192a9.19,9.19,0,0,1,4.02,9.665,9.592,9.592,0,0,1-7.925,7.962,10.431,10.431,0,0,1-6.285-.845c-3.222-1.468-6.248-4.5-8.76-8.891-.768-1.323-1.5-2.6-2.2-3.848C41.03,6.7,40.3,7.977,39.526,9.3c-2.511,4.393-5.545,7.423-8.767,8.891a10.422,10.422,0,0,1-6.272.835,9.61,9.61,0,0,1-7.935-7.969,9.207,9.207,0,0,1,4.023-9.662C25.006-1.17,28.524.139,30.049,2.6a5.477,5.477,0,0,1-.67,6.363c-1.188,1.421-2.754,1.966-4.077,1.431a.975.975,0,0,1,.737-1.8c.492.205,1.249-.141,1.862-.875a3.558,3.558,0,0,0,.5-4.09c-1.034-1.66-3.545-2.464-6.844-.549a7.272,7.272,0,0,0-3.091,7.646,7.626,7.626,0,0,0,6.37,6.4c4.592.835,9.339-2.367,13.015-8.794,1.38-2.35,2.609-4.555,3.787-6.7a1.825,1.825,0,0,1,.1-.172" transform="translate(38.791 -0.001)" fill="#636dff"/>
    <path id="路径_165" data-name="路径 165" d="M59.868,41.728a1.118,1.118,0,0,1-.178.091c-2.131,1.185-4.346,2.41-6.7,3.787-6.43,3.67-9.632,8.413-8.79,13.019a7.6,7.6,0,0,0,6.39,6.366A7.249,7.249,0,0,0,58.232,61.9c1.926-3.293,1.118-5.807-.529-6.844a3.563,3.563,0,0,0-4.107.5c-.724.613-1.081,1.363-.882,1.862a.969.969,0,1,1-1.794.731c-.539-1.316.007-2.882,1.427-4.077a5.479,5.479,0,0,1,6.376-.663c2.448,1.525,3.754,5.047,1.192,9.474a9.217,9.217,0,0,1-9.672,4.02,9.622,9.622,0,0,1-7.965-7.932,10.5,10.5,0,0,1,.855-6.279c1.454-3.222,4.5-6.255,8.884-8.76,1.33-.774,2.6-1.5,3.848-2.2-1.246-.694-2.518-1.421-3.848-2.2-4.387-2.515-7.423-5.545-8.884-8.767a10.4,10.4,0,0,1-.842-6.282,9.625,9.625,0,0,1,7.969-7.935,9.209,9.209,0,0,1,9.662,4.033c2.569,4.427,1.256,7.938-1.2,9.46a5.459,5.459,0,0,1-6.363-.656c-1.421-1.2-1.966-2.754-1.434-4.077a.971.971,0,1,1,1.8.727c-.212.5.145,1.246.875,1.865a3.574,3.574,0,0,0,4.1.5c1.653-1.037,2.454-3.558.542-6.844A7.256,7.256,0,0,0,50.6,18.471a7.589,7.589,0,0,0-6.4,6.356c-.835,4.605,2.36,9.352,8.79,13.025,2.346,1.384,4.562,2.6,6.693,3.791.054.024.118.05.178.084" transform="translate(99.681 38.791)" fill="#636dff"/>
    <path id="路径_166" data-name="路径 166" d="M41.72,59.857a1.242,1.242,0,0,1-.1-.165c-1.185-2.138-2.407-4.346-3.787-6.706-3.663-6.423-8.41-9.625-13.015-8.79a7.608,7.608,0,0,0-6.363,6.383,7.273,7.273,0,0,0,3.084,7.656c3.293,1.919,5.811,1.111,6.844-.539a3.558,3.558,0,0,0-.5-4.1c-.613-.717-1.363-1.074-1.855-.872a.973.973,0,0,1-.731-1.8c1.316-.535,2.875.013,4.07,1.431a5.444,5.444,0,0,1,.656,6.366c-1.518,2.458-5.043,3.767-9.467,1.2a9.211,9.211,0,0,1-4.02-9.665,9.607,9.607,0,0,1,7.932-7.962,10.463,10.463,0,0,1,6.285.845c3.222,1.458,6.248,4.5,8.753,8.891.774,1.32,1.5,2.6,2.208,3.845.69-1.249,1.421-2.525,2.2-3.845,2.511-4.393,5.545-7.423,8.76-8.891a10.462,10.462,0,0,1,6.279-.845A9.656,9.656,0,0,1,66.9,50.252a9.25,9.25,0,0,1-4.033,9.672c-4.424,2.565-7.942,1.246-9.467-1.205a5.466,5.466,0,0,1,.663-6.366c1.2-1.417,2.747-1.966,4.077-1.424A.968.968,0,1,1,57.4,52.72c-.492-.2-1.242.155-1.855.885a3.548,3.548,0,0,0-.5,4.09c1.034,1.66,3.558,2.464,6.844.549A7.258,7.258,0,0,0,64.969,50.6a7.619,7.619,0,0,0-6.349-6.4c-4.605-.828-9.359,2.38-13.029,8.79-1.38,2.36-2.6,4.568-3.794,6.706a1.437,1.437,0,0,1-.077.165" transform="translate(38.765 99.682)" fill="#636dff"/>
    <path id="路径_167" data-name="路径 167" d="M14.139,26.743a15.235,15.235,0,0,0-9.066-2.037,16.126,16.126,0,0,0-1.7.236.955.955,0,0,1-1.131-.768.971.971,0,0,1,.774-1.141,17.529,17.529,0,0,1,13.611,3.013.819.819,0,0,1,0,1.4A17.641,17.641,0,0,1,4.9,30.715c-.613-.061-1.249-.145-1.882-.269a.971.971,0,0,1,.357-1.909,14.562,14.562,0,0,0,1.7.239,15.232,15.232,0,0,0,9.066-2.033" transform="translate(5.269 53.742)" fill="#636dff"/>
    <path id="路径_168" data-name="路径 168" d="M26.757,14.137A15.306,15.306,0,0,0,28.8,5.075c-.054-.552-.135-1.108-.246-1.693a.972.972,0,0,1,.771-1.138.988.988,0,0,1,1.145.774A18.482,18.482,0,0,1,30.722,4.9a17.538,17.538,0,0,1-3.276,11.726.931.931,0,0,1-.69.4.945.945,0,0,1-.7-.4A17.63,17.63,0,0,1,22.777,4.9c.054-.606.151-1.239.269-1.882a.975.975,0,0,1,1.916.364,15.832,15.832,0,0,0-.249,1.693,15.334,15.334,0,0,0,2.044,9.063" transform="translate(53.762 5.268)" fill="#636dff"/>
    <path id="路径_169" data-name="路径 169" d="M44.086,26.753a15.242,15.242,0,0,0,9.073,2.037c.545-.044,1.1-.131,1.69-.236a.964.964,0,0,1,1.138.771.983.983,0,0,1-.768,1.138,18.221,18.221,0,0,1-1.882.259A17.557,17.557,0,0,1,41.6,27.45a.95.95,0,0,1-.4-.7.963.963,0,0,1,.4-.7,17.628,17.628,0,0,1,11.736-3.269,18.3,18.3,0,0,1,1.882.266.974.974,0,0,1-.37,1.912c-.586-.111-1.145-.192-1.69-.249a15.371,15.371,0,0,0-9.073,2.044" transform="translate(97.506 53.765)" fill="#636dff"/>
    <path id="路径_170" data-name="路径 170" d="M26.746,44.087A15.375,15.375,0,0,0,24.7,53.153c.05.552.131,1.1.236,1.69a.95.95,0,0,1-.757,1.131.962.962,0,0,1-1.145-.764,15.617,15.617,0,0,1-.263-1.879A17.546,17.546,0,0,1,26.042,41.6a.95.95,0,0,1,.7-.394.925.925,0,0,1,.7.4,17.518,17.518,0,0,1,3.269,11.729,16.822,16.822,0,0,1-.269,1.879.969.969,0,0,1-1.9-.367c.111-.589.192-1.138.242-1.69a15.3,15.3,0,0,0-2.037-9.066" transform="translate(53.739 97.508)" fill="#636dff"/>
    <path id="路径_171" data-name="路径 171" d="M7.157,44.79a13.826,13.826,0,0,1-.619,1.269.974.974,0,0,1-1.707-.939c2.963-5.363,3.845-15.288,2.188-24.132-.922-4.575.131-8.161,2.878-9.8a5.652,5.652,0,0,1,6.6.461,5.455,5.455,0,0,1,1.946,5.881c-.986,2.905-3.2,3.67-4.851,3.171a3.42,3.42,0,0,1-2.32-3.259,2.4,2.4,0,0,1,1.458-2.461.963.963,0,0,1,1.236.6.949.949,0,0,1-.6,1.222,1.075,1.075,0,0,0-.125.838,1.433,1.433,0,0,0,.919,1.2c.751.229,1.842-.155,2.448-1.936a3.513,3.513,0,0,0-1.33-3.747,3.721,3.721,0,0,0-4.38-.31c-2,1.2-2.727,4.037-1.98,7.763C10.3,27.977,10.241,38.036,7.157,44.79" transform="translate(11.154 24.458)" fill="#636dff"/>
    <path id="路径_172" data-name="路径 172" d="M44.79,50.491c.434.192.862.4,1.262.626a.973.973,0,1,1-.939,1.7c-5.36-2.959-15.288-3.841-24.132-2.185-4.579.919-8.147-.138-9.8-2.885a5.652,5.652,0,0,1,.458-6.6A5.463,5.463,0,0,1,17.521,39.2c2.909.99,3.67,3.208,3.178,4.855a3.421,3.421,0,0,1-3.262,2.323,2.394,2.394,0,0,1-2.464-1.458.977.977,0,0,1,.6-1.236.957.957,0,0,1,1.225.6,1.038,1.038,0,0,0,.835.125,1.418,1.418,0,0,0,1.2-.916c.222-.751-.151-1.845-1.939-2.451a3.507,3.507,0,0,0-3.74,1.33,3.718,3.718,0,0,0-.316,4.38c1.209,2,4.043,2.724,7.777,1.98,7.359-1.387,17.412-1.316,24.172,1.761" transform="translate(24.46 92.198)" fill="#636dff"/>
    <path id="路径_173" data-name="路径 173" d="M50.485,28.5c.192-.441.407-.862.63-1.262a.967.967,0,0,1,1.316-.387.955.955,0,0,1,.38,1.313C49.865,33.535,48.973,43.456,50.63,52.3c.919,4.579-.131,8.15-2.885,9.8a5.655,5.655,0,0,1-6.6-.461,5.433,5.433,0,0,1-1.943-5.878c.98-2.905,3.2-3.673,4.848-3.175a3.4,3.4,0,0,1,2.32,3.259,2.407,2.407,0,0,1-1.458,2.468.977.977,0,0,1-1.236-.6.964.964,0,0,1,.6-1.229,1.078,1.078,0,0,0,.131-.838,1.446,1.446,0,0,0-.933-1.2c-.744-.229-1.835.151-2.441,1.932a3.494,3.494,0,0,0,1.33,3.744,3.722,3.722,0,0,0,4.38.316c2-1.212,2.727-4.04,1.973-7.777C47.34,45.311,47.408,35.252,50.485,28.5" transform="translate(92.198 63.258)" fill="#636dff"/>
    <path id="路径_174" data-name="路径 174" d="M28.5,7.163a13.9,13.9,0,0,1-1.269-.626.982.982,0,0,1-.387-1.32.964.964,0,0,1,1.32-.38c5.366,2.952,15.294,3.841,24.132,2.182,4.579-.919,8.161.138,9.8,2.885a5.643,5.643,0,0,1-.458,6.6,5.44,5.44,0,0,1-5.878,1.939c-2.9-.976-3.676-3.192-3.178-4.841a3.417,3.417,0,0,1,3.269-2.32,2.381,2.381,0,0,1,2.454,1.454.968.968,0,0,1-.593,1.236.957.957,0,0,1-1.229-.6,1.089,1.089,0,0,0-.842-.138,1.469,1.469,0,0,0-1.2.933c-.229.747.158,1.842,1.939,2.448a3.509,3.509,0,0,0,3.744-1.337,3.711,3.711,0,0,0,.306-4.373c-1.2-2-4.03-2.734-7.763-1.976C45.318,10.3,35.246,10.24,28.5,7.163" transform="translate(63.257 11.151)" fill="#636dff"/>
    <path id="路径_175" data-name="路径 175" d="M44.8,7.163c.434-.205.855-.411,1.256-.63a.96.96,0,0,0,.38-1.316.947.947,0,0,0-1.306-.38C39.761,7.789,29.84,8.668,21,7c-4.579-.919-8.154.138-9.8,2.892a5.655,5.655,0,0,0,.458,6.6,5.482,5.482,0,0,0,5.878,1.946c2.909-.99,3.676-3.2,3.171-4.855a3.391,3.391,0,0,0-3.262-2.32,2.382,2.382,0,0,0-2.458,1.454.971.971,0,1,0,1.835.636,1.012,1.012,0,0,1,.835-.125,1.429,1.429,0,0,1,1.2.919c.229.751-.151,1.842-1.939,2.448a3.506,3.506,0,0,1-3.747-1.337,3.716,3.716,0,0,1-.3-4.373c1.2-2,4.03-2.734,7.763-1.973,7.359,1.38,17.425,1.323,24.186-1.747" transform="translate(24.477 11.151)" fill="#636dff"/>
    <path id="路径_176" data-name="路径 176" d="M7.157,28.479a13.685,13.685,0,0,0-.633-1.256.966.966,0,0,0-1.693.929C7.787,33.525,8.669,43.45,7,52.294c-.926,4.575.131,8.147,2.882,9.8a5.653,5.653,0,0,0,6.6-.458,5.452,5.452,0,0,0,1.949-5.878c-.986-2.909-3.2-3.673-4.848-3.178a3.4,3.4,0,0,0-2.32,3.262A2.375,2.375,0,0,0,12.712,58.3a.981.981,0,0,0,1.239-.6.968.968,0,0,0-.606-1.229,1.044,1.044,0,0,1-.125-.835,1.439,1.439,0,0,1,.926-1.2c.744-.229,1.848.155,2.441,1.936a3.5,3.5,0,0,1-1.33,3.747,3.727,3.727,0,0,1-4.38.31c-2-1.209-2.72-4.037-1.966-7.777,1.377-7.356,1.323-17.415-1.754-24.179" transform="translate(11.154 63.237)" fill="#636dff"/>
    <path id="路径_177" data-name="路径 177" d="M28.489,50.477c-.441.205-.869.4-1.269.63a.973.973,0,0,0-.38,1.316.961.961,0,0,0,1.313.384c5.366-2.952,15.294-3.835,24.138-2.165,4.579.919,8.154-.135,9.8-2.889a5.649,5.649,0,0,0-.458-6.6,5.467,5.467,0,0,0-5.878-1.946c-2.9.99-3.67,3.2-3.171,4.855a3.417,3.417,0,0,0,3.262,2.32,2.392,2.392,0,0,0,2.464-1.454.969.969,0,1,0-1.831-.636,1.014,1.014,0,0,1-.825.128,1.418,1.418,0,0,1-1.2-.922c-.236-.744.145-1.848,1.926-2.444a3.5,3.5,0,0,1,3.747,1.323,3.723,3.723,0,0,1,.316,4.383c-1.2,2-4.043,2.72-7.77,1.973-7.359-1.38-17.425-1.323-24.179,1.747" transform="translate(63.234 92.212)" fill="#636dff"/>
    <path id="路径_178" data-name="路径 178" d="M50.474,44.8c.205.441.414.862.643,1.266a.961.961,0,1,0,1.683-.929c-2.946-5.37-3.824-15.3-2.161-24.138.919-4.575-.131-8.15-2.889-9.8a5.639,5.639,0,0,0-6.6.461A5.474,5.474,0,0,0,39.2,17.533c.993,2.9,3.208,3.673,4.861,3.165a3.4,3.4,0,0,0,2.313-3.262,2.391,2.391,0,0,0-1.451-2.458.972.972,0,0,0-1.232.609.956.956,0,0,0,.6,1.225,1.041,1.041,0,0,1,.125.828,1.416,1.416,0,0,1-.919,1.2c-.744.232-1.848-.141-2.448-1.926a3.5,3.5,0,0,1,1.33-3.75,3.7,3.7,0,0,1,4.377-.3c2,1.205,2.73,4.033,1.973,7.763-1.38,7.356-1.32,17.425,1.744,24.179" transform="translate(92.208 24.478)" fill="#636dff"/>
    <path id="路径_179" data-name="路径 179" d="M11.855,25.549a.974.974,0,0,1-.364.414.942.942,0,0,1-.885.074,13.255,13.255,0,0,1-6.2-5.245,13.346,13.346,0,0,1-2.158-7.827,1,1,0,0,1,.454-.778.98.98,0,0,1,.889-.074,13.343,13.343,0,0,1,6.2,5.245,13.25,13.25,0,0,1,2.145,7.824.908.908,0,0,1-.077.367M4.239,14.594a11.882,11.882,0,0,0,5.72,8.969A11.594,11.594,0,0,0,8.145,18.4a11.814,11.814,0,0,0-3.905-3.808" transform="translate(5.285 28.491)" fill="#636dff"/>
    <path id="路径_180" data-name="路径 180" d="M25.544,42.793a.984.984,0,0,1,.5,1.256A13.352,13.352,0,0,1,20.8,50.243,13.376,13.376,0,0,1,12.96,52.4a1.031,1.031,0,0,1-.778-.451.974.974,0,0,1-.064-.892,13.69,13.69,0,0,1,13.066-8.342.907.907,0,0,1,.36.074M14.6,50.418a11.888,11.888,0,0,0,5.154-1.8,11.539,11.539,0,0,0,3.808-3.922A11.865,11.865,0,0,0,14.6,50.418" transform="translate(28.49 101.064)" fill="#636dff"/>
    <path id="路径_181" data-name="路径 181" d="M42.806,32.17a1.1,1.1,0,0,1,.357-.411.952.952,0,0,1,.885-.084,13.764,13.764,0,0,1,8.359,13.079,1,1,0,0,1-.454.778.966.966,0,0,1-.889.074,13.748,13.748,0,0,1-8.349-13.069.8.8,0,0,1,.091-.367m7.615,10.955a11.916,11.916,0,0,0-5.727-8.969,11.965,11.965,0,0,0,5.727,8.969" transform="translate(101.058 74.793)" fill="#636dff"/>
    <path id="路径_182" data-name="路径 182" d="M32.173,11.85a1.04,1.04,0,0,1-.414-.357.947.947,0,0,1-.077-.892A13.73,13.73,0,0,1,44.751,2.248a.971.971,0,0,1,.855,1.34,13.353,13.353,0,0,1-5.238,6.195,13.349,13.349,0,0,1-7.834,2.151.832.832,0,0,1-.36-.084M43.121,4.231a11.859,11.859,0,0,0-5.148,1.8,11.56,11.56,0,0,0-3.814,3.922,11.6,11.6,0,0,0,5.154-1.815,11.706,11.706,0,0,0,3.808-3.912" transform="translate(74.793 5.289)" fill="#636dff"/>
    <path id="路径_183" data-name="路径 183" d="M25.546,11.853a.916.916,0,0,0,.414-.367.96.96,0,0,0,.091-.879A13.39,13.39,0,0,0,20.806,4.4a13.451,13.451,0,0,0-7.831-2.158,1.01,1.01,0,0,0-.778.451.952.952,0,0,0-.071.892,13.234,13.234,0,0,0,5.245,6.191A13.267,13.267,0,0,0,25.2,11.933a1.183,1.183,0,0,0,.35-.081M14.605,4.227a11.852,11.852,0,0,1,5.154,1.8,11.623,11.623,0,0,1,3.814,3.932,11.621,11.621,0,0,1-5.168-1.815,11.8,11.8,0,0,1-3.8-3.919" transform="translate(28.514 5.276)" fill="#636dff"/>
    <path id="路径_184" data-name="路径 184" d="M11.847,32.164a.947.947,0,0,0-.364-.414.962.962,0,0,0-.885-.084,13.332,13.332,0,0,0-6.2,5.245,13.307,13.307,0,0,0-2.151,7.824.951.951,0,0,0,1.33.852,13.406,13.406,0,0,0,6.2-5.232,13.391,13.391,0,0,0,2.158-7.837.988.988,0,0,0-.084-.353M4.218,43.105a11.878,11.878,0,0,1,1.808-5.151,11.665,11.665,0,0,1,3.932-3.818,11.786,11.786,0,0,1-1.815,5.171,11.807,11.807,0,0,1-3.925,3.8" transform="translate(5.282 74.772)" fill="#636dff"/>
    <path id="路径_185" data-name="路径 185" d="M32.161,42.806a1.079,1.079,0,0,0-.414.357.959.959,0,0,0-.077.889,13.706,13.706,0,0,0,13.076,8.356.957.957,0,0,0,.764-.441,1,1,0,0,0,.091-.9,13.775,13.775,0,0,0-13.076-8.349.832.832,0,0,0-.364.084m10.955,7.622a11.86,11.86,0,0,1-5.161-1.808,11.521,11.521,0,0,1-3.808-3.925,11.623,11.623,0,0,1,5.161,1.815,11.953,11.953,0,0,1,3.808,3.919" transform="translate(74.772 101.072)" fill="#636dff"/>
    <path id="路径_186" data-name="路径 186" d="M42.81,25.55a.967.967,0,0,0,1.242.5,13.393,13.393,0,0,0,6.208-5.242,13.381,13.381,0,0,0,2.151-7.834.975.975,0,0,0-1.337-.855A13.75,13.75,0,0,0,42.719,25.19a1.181,1.181,0,0,0,.091.36M50.432,14.6a11.92,11.92,0,0,1-1.808,5.158,11.48,11.48,0,0,1-3.925,3.8,11.6,11.6,0,0,1,1.808-5.158,11.8,11.8,0,0,1,3.925-3.8" transform="translate(101.067 28.514)" fill="#636dff"/>
    <path id="路径_187" data-name="路径 187" d="M7.206,22.7a3.126,3.126,0,1,1-1.552-4.141A3.124,3.124,0,0,1,7.206,22.7M3.274,20.919a1.188,1.188,0,1,0,1.572-.586,1.193,1.193,0,0,0-1.572.586" transform="translate(2.924 43.265)" fill="#636dff"/>
    <path id="路径_188" data-name="路径 188" d="M22.7,45.008a3.128,3.128,0,1,1-4.141,1.555A3.131,3.131,0,0,1,22.7,45.008M20.915,48.94a1.185,1.185,0,0,0,.98-2.158,1.17,1.17,0,0,0-1.559.586,1.184,1.184,0,0,0,.579,1.572" transform="translate(43.266 105.859)" fill="#636dff"/>
    <path id="路径_189" data-name="路径 189" d="M45.014,29.519a3.124,3.124,0,1,1,1.545,4.141,3.13,3.13,0,0,1-1.545-4.141M48.933,31.3a1.185,1.185,0,1,0-1.572.586,1.188,1.188,0,0,0,1.572-.586" transform="translate(105.862 65.52)" fill="#636dff"/>
    <path id="路径_190" data-name="路径 190" d="M29.517,7.2a3.121,3.121,0,1,1,4.134-1.542A3.112,3.112,0,0,1,29.517,7.2m1.774-3.922a1.182,1.182,0,0,0-.966,2.158,1.164,1.164,0,0,0,1.552-.586,1.177,1.177,0,0,0-.586-1.572" transform="translate(65.522 2.928)" fill="#636dff"/>
    <path id="路径_191" data-name="路径 191" d="M22.71,7.205a3.127,3.127,0,1,0-4.138-1.552A3.13,3.13,0,0,0,22.71,7.205M20.933,3.283a1.18,1.18,0,1,1-.6,1.565,1.183,1.183,0,0,1,.6-1.565" transform="translate(43.288 2.922)" fill="#636dff"/>
    <path id="路径_192" data-name="路径 192" d="M7.2,29.5a3.127,3.127,0,1,0-1.552,4.141A3.13,3.13,0,0,0,7.2,29.5M3.279,31.284a1.184,1.184,0,1,1,1.565.6,1.181,1.181,0,0,1-1.565-.6" transform="translate(2.919 65.495)" fill="#636dff"/>
    <path id="路径_193" data-name="路径 193" d="M29.511,45.012a3.126,3.126,0,1,0,4.134,1.555,3.132,3.132,0,0,0-4.134-1.555m1.774,3.922a1.185,1.185,0,1,1,.593-1.562,1.182,1.182,0,0,1-.593,1.562" transform="translate(65.494 105.865)" fill="#636dff"/>
    <path id="路径_194" data-name="路径 194" d="M45.011,22.706a3.125,3.125,0,1,0,1.552-4.131,3.131,3.131,0,0,0-1.552,4.131m3.932-1.771a1.188,1.188,0,1,1-1.579-.6,1.2,1.2,0,0,1,1.579.6" transform="translate(105.866 43.289)" fill="#636dff"/>
    <path id="路径_195" data-name="路径 195" d="M2.783,24.457c3.2-.421,6.757-.623,11.312-.781a.971.971,0,0,1,.99.781.974.974,0,0,1-.99.788c-4.555-.162-8.11-.374-11.312-.788" transform="translate(6.586 56.028)" fill="#636dff"/>
    <path id="路径_196" data-name="路径 196" d="M24.476,2.782c.414,3.2.619,6.763.781,11.318a.979.979,0,0,1-.781.986.984.984,0,0,1-.795-.986c.165-4.555.374-8.113.795-11.318" transform="translate(56.043 6.584)" fill="#636dff"/>
    <path id="路径_197" data-name="路径 197" d="M53.687,24.471c-3.2.421-6.76.623-11.315.781a.967.967,0,0,1-.986-.781.973.973,0,0,1,.986-.788c4.555.162,8.113.367,11.315.788" transform="translate(97.943 56.047)" fill="#636dff"/>
    <path id="路径_198" data-name="路径 198" d="M24.457,53.692c-.428-3.2-.626-6.763-.781-11.318a.959.959,0,0,1,.781-.986.971.971,0,0,1,.788.986c-.162,4.555-.367,8.117-.788,11.318" transform="translate(56.028 97.946)" fill="#636dff"/>
    <path id="路径_199" data-name="路径 199" d="M14.527,39.248a3.126,3.126,0,1,0-1.552,4.141,3.123,3.123,0,0,0,1.552-4.141m-3.919,1.784a1.185,1.185,0,1,1,1.565.586,1.182,1.182,0,0,1-1.565-.586" transform="translate(20.247 88.557)" fill="#636dff"/>
    <path id="路径_200" data-name="路径 200" d="M14.527,10.339a3.127,3.127,0,1,0-1.552,4.141,3.133,3.133,0,0,0,1.552-4.141m-3.919,1.781a1.184,1.184,0,1,1,1.565.586,1.181,1.181,0,0,1-1.565-.586" transform="translate(20.247 20.129)" fill="#636dff"/>
    <path id="路径_201" data-name="路径 201" d="M43.309,39.248a3.126,3.126,0,1,0-1.559,4.141,3.13,3.13,0,0,0,1.559-4.141m-3.925,1.784a1.185,1.185,0,1,1,1.565.586,1.182,1.182,0,0,1-1.565-.586" transform="translate(88.355 88.557)" fill="#636dff"/>
    <path id="路径_202" data-name="路径 202" d="M43.309,10.339a3.127,3.127,0,1,0-1.559,4.141,3.14,3.14,0,0,0,1.559-4.141m-3.925,1.781a1.184,1.184,0,1,1,1.565.586,1.181,1.181,0,0,1-1.565-.586" transform="translate(88.355 20.129)" fill="#636dff"/>
  </g>
</svg>
